<svg width="641" height="68" viewBox="0 0 641 68" fill="none" xmlns="http://www.w3.org/2000/svg">
								<g class="item active">
									<g class="filled">
										<path d="M0 15.9997V23.9997C8.48696 23.9997 16.6263 27.3712 22.6275 33.3724C28.6287 39.3736 32.0002 47.5129 32.0002 55.9999V67.9999H48.0001V55.9999C48.0001 47.5129 51.3717 39.3736 57.3729 33.3724C63.374 27.3712 71.5134 23.9997 80.0003 23.9997V15.9997H0Z"></path>
										<path d="M40.0004 16C44.4187 16 48.0005 12.4184 48.0005 8.00005C48.0005 3.58174 44.4187 -0.00012207 40.0004 -0.00012207C35.5821 -0.00012207 32.0002 3.58174 32.0002 8.00005C32.0002 12.4184 35.5821 16 40.0004 16Z"></path>
									</g>
									<g class="stroked">
										<path d="M80.0005 22.9961C61.7868 22.9961 47.0005 37.7828 47.0005 55.9963V66.9964H33.0002V55.9963C33.0002 38.1253 18.7409 23.6388 0.999946 23.0976V16.996H80.0005"></path>
										<path d="M39.9933 1C36.1154 1 32.9952 4.12018 32.9952 7.99807C32.9952 11.876 36.1154 14.9961 39.9933 14.9961C43.8712 14.9961 47.0061 11.876 47.0061 7.99807C47.0061 4.12018 43.8712 1 39.9933 1Z"></path>
									</g>
								</g>
								<g class="item">
									<g class="filled">
										<path d="M80.0005 15.9996V23.9995C88.4874 23.9996 96.6268 27.3711 102.628 33.3723C108.629 39.3735 112.001 47.5128 112.001 55.9998V67.9998H128.001V55.9998C128.001 47.5128 131.372 39.3735 137.373 33.3723C143.375 27.3711 151.514 23.9996 160.001 23.9995V15.9996H80.0005Z"></path>
										<path d="M120.001 15.9999C124.419 15.9999 128.001 12.4182 128.001 7.99993C128.001 3.58162 124.419 -0.000244141 120.001 -0.000244141C115.583 -0.000244141 112.001 3.58162 112.001 7.99993C112.001 12.4182 115.583 15.9999 120.001 15.9999Z"></path>
									</g>
									<g class="stroked">
										<path d="M80.0005 22.9957C98.2141 22.9957 113.001 37.7825 113.001 55.996V66.996H127.004V55.996C127.004 37.7825 141.787 22.9999 160.001 22.9999"></path>
										<path d="M80.001 16.9957H160.0005"></path>
										<path d="M120.008 1C123.886 1 127.006 4.12018 127.006 7.99807C127.006 11.876 123.886 14.9961 120.008 14.9961C116.13 14.9961 112.995 11.876 112.995 7.99807C112.995 4.12018 116.13 1 120.008 1Z"></path>
									</g>
								</g>
								<g class="item">
									<g class="filled">
										<path d="M160.001 15.9996V23.9995C168.488 23.9996 176.627 27.3711 182.628 33.3723C188.63 39.3735 192.001 47.5128 192.001 55.9998V67.9998H208.001V55.9998C208.001 47.5128 211.373 39.3735 217.374 33.3723C223.375 27.3711 231.514 23.9996 240.001 23.9995V15.9996H160.001Z"></path>
										<path d="M200.001 15.9999C204.42 15.9999 208.002 12.4182 208.002 7.99993C208.002 3.58162 204.42 -0.000244141 200.001 -0.000244141C195.583 -0.000244141 192.001 3.58162 192.001 7.99993C192.001 12.4182 195.583 15.9999 200.001 15.9999Z"></path>
									</g>
									<g class="stroked">
										<path d="M160.001 22.9957C178.215 22.9957 193.001 37.7825 193.001 55.996V66.996H207.005V55.996C207.005 37.7825 221.788 22.9999 240.001 22.9999"></path>
										<path d="M160.001 16.9957H240.001"></path>
										<path d="M200.009 1C203.887 1 207.007 4.12018 207.007 7.99807C207.007 11.876 203.887 14.9961 200.009 14.9961C196.131 14.9961 192.996 11.876 192.996 7.99807C192.996 4.12018 196.131 1 200.009 1Z"></path>
									</g>
								</g>
								<g class="item">
									<g class="filled">
										<path d="M240.001 15.9996V23.9995C248.488 23.9996 256.628 27.3711 262.629 33.3723C268.63 39.3735 272.002 47.5128 272.002 55.9998V67.9998H288.002V55.9998C288.002 47.5128 291.373 39.3735 297.374 33.3723C303.376 27.3711 311.515 23.9996 320.002 23.9995V15.9996H240.001Z"></path>
										<path d="M280.002 15.9999C284.42 15.9999 288.002 12.4182 288.002 7.99993C288.002 3.58162 284.42 -0.000244141 280.002 -0.000244141C275.584 -0.000244141 272.002 3.58162 272.002 7.99993C272.002 12.4182 275.584 15.9999 280.002 15.9999Z"></path>
									</g>
									<g class="stroked">
										<path d="M240.001 22.9957C258.215 22.9957 273.001 37.7825 273.001 55.996V66.996H287.005V55.996C287.005 37.7825 301.788 22.9999 320.002 22.9999"></path>
										<path d="M240.002 16.9957H320.001"></path>
										<path d="M280.009 1C283.887 1 287.007 4.12018 287.007 7.99807C287.007 11.876 283.887 14.9961 280.009 14.9961C276.131 14.9961 272.996 11.876 272.996 7.99807C272.996 4.12018 276.131 1 280.009 1Z"></path>
									</g>
								</g>
								<g class="item">
									<g class="filled">
										<path d="M320.002 15.9996V23.9995C328.489 23.9996 336.628 27.3711 342.629 33.3723C348.631 39.3735 352.002 47.5128 352.002 55.9998V67.9998H368.002V55.9998C368.002 47.5128 371.374 39.3735 377.375 33.3723C383.376 27.3711 391.515 23.9996 400.002 23.9995V15.9996H320.002Z"></path>
										<path d="M360.002 15.9999C364.421 15.9999 368.002 12.4182 368.002 7.99993C368.002 3.58162 364.421 -0.000244141 360.002 -0.000244141C355.584 -0.000244141 352.002 3.58162 352.002 7.99993C352.002 12.4182 355.584 15.9999 360.002 15.9999Z"></path>
									</g>
									<g class="stroked">
										<path d="M320.002 22.9957C338.216 22.9957 353.002 37.7825 353.002 55.996V66.996H367.006V55.996C367.006 37.7825 381.789 22.9999 400.002 22.9999"></path>
										<path d="M320.002 16.9957H400.002"></path>
										<path d="M360.01 1C363.887 1 367.008 4.12018 367.008 7.99807C367.008 11.876 363.887 14.9961 360.01 14.9961C356.132 14.9961 352.997 11.876 352.997 7.99807C352.997 4.12018 356.132 1 360.01 1Z"></path>
									</g>
								</g>
								<g class="item">
									<g class="filled">
										<path d="M400.002 15.9996V23.9995C408.489 23.9996 416.629 27.3711 422.63 33.3723C428.631 39.3735 432.003 47.5128 432.003 55.9998V67.9998H448.003V55.9998C448.003 47.5128 451.374 39.3735 457.375 33.3723C463.376 27.3711 471.516 23.9996 480.003 23.9995V15.9996H400.002Z"></path>
										<path d="M440.003 15.9999C444.421 15.9999 448.003 12.4182 448.003 7.99993C448.003 3.58162 444.421 -0.000244141 440.003 -0.000244141C435.585 -0.000244141 432.003 3.58162 432.003 7.99993C432.003 12.4182 435.585 15.9999 440.003 15.9999Z"></path>
									</g>
									<g class="stroked">
										<path d="M400.002 22.9957C418.216 22.9957 433.002 37.7825 433.002 55.996V66.996H447.006V55.996C447.006 37.7825 461.789 22.9999 480.003 22.9999"></path>
										<path d="M400.003 16.9957H480.002"></path>
										<path d="M440.01 1C443.888 1 447.008 4.12018 447.008 7.99807C447.008 11.876 443.888 14.9961 440.01 14.9961C436.132 14.9961 432.997 11.876 432.997 7.99807C432.997 4.12018 436.132 1 440.01 1Z"></path>
									</g>
								</g>
								<g class="item">
									<g class="filled">
										<path d="M480.003 15.9996V23.9995C488.49 23.9996 496.629 27.3711 502.63 33.3723C508.632 39.3735 512.003 47.5128 512.003 55.9998V67.9998H528.003V55.9998C528.003 47.5128 531.375 39.3735 537.376 33.3723C543.377 27.3711 551.516 23.9996 560.003 23.9995V15.9996H480.003Z"></path>
										<path d="M520.003 15.9999C524.422 15.9999 528.003 12.4182 528.003 7.99993C528.003 3.58162 524.422 -0.000244141 520.003 -0.000244141C515.585 -0.000244141 512.003 3.58162 512.003 7.99993C512.003 12.4182 515.585 15.9999 520.003 15.9999Z"></path>
									</g>
									<g class="stroked">
										<path d="M480.003 22.9957C498.217 22.9957 513.003 37.7825 513.003 55.996V66.996H527.007V55.996C527.007 37.7825 541.79 22.9999 560.003 22.9999"></path>
										<path d="M480.003 16.9957H560.003"></path>
										<path d="M520.011 1C523.888 1 527.009 4.12018 527.009 7.99807C527.009 11.876 523.888 14.9961 520.011 14.9961C516.133 14.9961 512.998 11.876 512.998 7.99807C512.998 4.12018 516.133 1 520.011 1Z"></path>
									</g>
								</g>
								<g class="item">
									<g class="filled">
										<path d="M560.003 15.9996V23.9995C568.49 23.9996 576.63 27.3711 582.631 33.3723C588.632 39.3735 592.004 47.5128 592.004 55.9998V67.9998H608.004V55.9998C608.004 47.5128 611.375 39.3735 617.376 33.3723C623.377 27.3711 631.517 23.9996 640.004 23.9995V15.9996H560.003Z"></path>
										<path d="M600.004 15.9999C604.422 15.9999 608.004 12.4182 608.004 7.99993C608.004 3.58162 604.422 -0.000244141 600.004 -0.000244141C595.585 -0.000244141 592.004 3.58162 592.004 7.99993C592.004 12.4182 595.585 15.9999 600.004 15.9999Z"></path>
									</g>
									<g class="stroked">
										<path d="M560.003 22.9961C578.217 22.9961 593.003 37.7828 593.003 55.9963V66.9964H607.004V55.9963C607.004 38.1253 621.263 23.6388 639.004 23.0976V16.996H560.003"></path>
										<path d="M600.011 1C603.888 1 607.009 4.12018 607.009 7.99807C607.009 11.876 603.888 14.9961 600.011 14.9961C596.133 14.9961 592.998 11.876 592.998 7.99807C592.998 4.12018 596.133 1 600.011 1Z"></path>
									</g>
								</g>
							</svg>