<?xml version="1.0" encoding="utf-8"?>
<!-- Generator: Adobe Illustrator 19.2.1, SVG Export Plug-In . SVG Version: 6.00 Build 0)  -->
<svg version="1.1" xmlns="http://www.w3.org/2000/svg" xmlns:xlink="http://www.w3.org/1999/xlink" x="0px" y="0px"
	 viewBox="0 0 67 69.1" style="enable-background:new 0 0 67 69.1;" xml:space="preserve">
<style type="text/css">
	.st0{display:none;}
	.st1{display:inline;fill:#B53A3A;}
	.st2{fill:#FFFFFF;}
</style>
<g id="Слой_1" class="st0">
	<rect x="-216.5" y="-203.9" class="st1" width="500" height="500"/>
</g>
<g id="Слой_2">
	<g>
		<path class="st2" d="M53.5,69.1h-40C6.1,69.1,0,63.1,0,55.6v-40C0,8.2,6.1,2.1,13.5,2.1h40C60.9,2.1,67,8.2,67,15.6v40
			C67,63.1,60.9,69.1,53.5,69.1z M13.5,5.1C7.7,5.1,3,9.8,3,15.6v40c0,5.8,4.7,10.5,10.5,10.5h40c5.8,0,10.5-4.7,10.5-10.5v-40
			c0-5.8-4.7-10.5-10.5-10.5H13.5z"/>
	</g>
	<g>
		<polygon class="st2" points="65.5,19.1 1.5,19.1 1.5,22.1 65.5,22.1 65.5,19.1 		"/>
	</g>
	<g>
		<path class="st2" d="M19,0c-0.8,0-1.5,0.7-1.5,1.5v7c0,0.8,0.7,1.5,1.5,1.5s1.5-0.7,1.5-1.5v-7C20.5,0.7,19.8,0,19,0L19,0z"/>
	</g>
	<g>
		<path class="st2" d="M48,0c-0.8,0-1.5,0.7-1.5,1.5v7c0,0.8,0.7,1.5,1.5,1.5s1.5-0.7,1.5-1.5v-7C49.5,0.7,48.8,0,48,0L48,0z"/>
	</g>
	<g>
		<path class="st2" d="M17.2,51.1l2.3-2.8c1.5,1.8,4.1,2.9,6.7,2.9c3.2,0,5-1.4,5-3.7c0-2.4-1.9-3.4-5.3-3.4c-1,0-2.4,0-2.8,0v-3.8
			c0.4,0,1.8,0,2.8,0c2.8,0,4.9-1,4.9-3.2c0-2.2-2.2-3.4-4.9-3.4c-2.4,0-4.5,0.9-6.2,2.7l-2.2-2.6c1.8-2.2,4.8-3.8,8.7-3.8
			c5.2,0,8.7,2.4,8.7,6.5c0,3.2-2.7,5.1-5.2,5.5c2.3,0.2,5.6,2.1,5.6,5.8c0,4.1-3.5,7-9,7C22,55,18.8,53.2,17.2,51.1z"/>
		<path class="st2" d="M43.9,54.5V36L40,40.1l-2.4-2.6l6.9-7h3.7v24H43.9z"/>
	</g>
</g>
</svg>
