<?xml version="1.0" encoding="utf-8"?>
<!-- Generator: Adobe Illustrator 19.2.1, SVG Export Plug-In . SVG Version: 6.00 Build 0)  -->
<svg version="1.1" xmlns="http://www.w3.org/2000/svg" xmlns:xlink="http://www.w3.org/1999/xlink" x="0px" y="0px"
	 viewBox="0 0 500 500" style="enable-background:new 0 0 500 500;" xml:space="preserve">
<style type="text/css">
	.st0{display:none;}
	.st1{display:inline;fill:#B53A3A;}
	.st2{fill:none;stroke:#FFFFFF;stroke-width:3;stroke-miterlimit:10;}
	.st3{fill:#FFFFFF;}
	.st4{font-family:'ProximaNova-Semibold';}
	.st5{font-size:36px;}
</style>
<g id="Слой_1" class="st0">
	<rect class="st1" width="500" height="500"/>
</g>
<g id="Слой_2">
	<path class="st2" d="M270,271.5h-40c-6.6,0-12-5.4-12-12v-40c0-6.6,5.4-12,12-12h40c6.6,0,12,5.4,12,12v40
		C282,266.1,276.6,271.5,270,271.5z"/>
	<g>
		<polygon class="st3" points="282,223 218,223 218,226 282,226 282,223 		"/>
	</g>
	<g>
		<path class="st3" d="M235.5,203.9c-0.8,0-1.5,0.7-1.5,1.5v7c0,0.8,0.7,1.5,1.5,1.5s1.5-0.7,1.5-1.5v-7
			C237,204.6,236.3,203.9,235.5,203.9L235.5,203.9z"/>
	</g>
	<g>
		<path class="st3" d="M264.5,203.9c-0.8,0-1.5,0.7-1.5,1.5v7c0,0.8,0.7,1.5,1.5,1.5s1.5-0.7,1.5-1.5v-7
			C266,204.6,265.3,203.9,264.5,203.9L264.5,203.9z"/>
	</g>
	<text transform="matrix(1 0 0 1 232.8281 258.404)" class="st3 st4 st5">31</text>
</g>
</svg>
