<?xml version="1.0" encoding="utf-8"?>
<!-- Generator: Adobe Illustrator 19.2.1, SVG Export Plug-In . SVG Version: 6.00 Build 0)  -->
<svg version="1.1" id="Слой_1" xmlns="http://www.w3.org/2000/svg" xmlns:xlink="http://www.w3.org/1999/xlink" x="0px" y="0px"
	 viewBox="0 0 500 500" style="enable-background:new 0 0 500 500;" xml:space="preserve">
<style type="text/css">
	.st0{fill:#FFFFFF;}
</style>
<g>
	<path class="st0" d="M272.3,260.5c0.1,0.3,0.2,0.6,0.2,1c0,3.3-8.6,8-22,8c-13.4,0-22-4.7-22-8c0-0.3,0.1-0.7,0.2-1
		c5.2,3.1,13.2,5,21.8,5C259.1,265.5,267.1,263.6,272.3,260.5 M272.8,256.5c-4.1,3.6-12.6,6-22.3,6c-9.7,0-18.1-2.4-22.3-6
		c-1.7,1.5-2.7,3.2-2.7,5c0,6.1,11.2,11,25,11c13.8,0,25-4.9,25-11C275.5,259.7,274.5,258,272.8,256.5L272.8,256.5z"/>
</g>
<g>
	<path class="st0" d="M272.3,248.5c0.1,0.3,0.2,0.6,0.2,1c0,3.3-8.6,8-22,8c-13.4,0-22-4.7-22-8c0-0.3,0.1-0.7,0.2-1
		c5.2,3.1,13.2,5,21.8,5C259.1,253.5,267.1,251.6,272.3,248.5 M272.8,244.5c-4.1,3.6-12.6,6-22.3,6c-9.7,0-18.1-2.4-22.3-6
		c-1.7,1.5-2.7,3.2-2.7,5c0,6.1,11.2,11,25,11c13.8,0,25-4.9,25-11C275.5,247.7,274.5,246,272.8,244.5L272.8,244.5z"/>
</g>
<g>
	<path class="st0" d="M250.5,229.5c13.4,0,22,4.7,22,8s-8.6,8-22,8s-22-4.7-22-8S237.1,229.5,250.5,229.5 M250.5,226.5
		c-13.8,0-25,4.9-25,11s11.2,11,25,11c13.8,0,25-4.9,25-11S264.3,226.5,250.5,226.5L250.5,226.5z"/>
</g>
</svg>
