<?xml version="1.0" encoding="utf-8"?>
<!-- Generator: Adobe Illustrator 19.2.1, SVG Export Plug-In . SVG Version: 6.00 Build 0)  -->
<svg version="1.1" xmlns="http://www.w3.org/2000/svg" xmlns:xlink="http://www.w3.org/1999/xlink" x="0px" y="0px"
	 viewBox="0 0 50 46" style="enable-background:new 0 0 50 46;" xml:space="preserve">
<style type="text/css">
	.st0{display:none;}
	.st1{display:inline;fill:#D61818;stroke:#000000;stroke-miterlimit:10;}
	.st2{fill:#FFFFFF;}
</style>
<g id="Слой_2" class="st0">
	<rect x="-32.7" y="-44.8" class="st1" width="152" height="133.2"/>
</g>
<g id="Слой_1">
	<path class="st2" d="M46.8,34c0.1,0.3,0.2,0.6,0.2,1c0,3.3-8.6,8-22,8c-13.4,0-22-4.7-22-8c0-0.3,0.1-0.7,0.2-1
		c5.2,3.1,13.2,5,21.8,5C33.6,39,41.6,37.1,46.8,34 M47.3,30c-4.1,3.6-12.6,6-22.3,6c-9.7,0-18.1-2.4-22.3-6C1,31.5,0,33.2,0,35
		c0,6.1,11.2,11,25,11c13.8,0,25-4.9,25-11C50,33.2,49,31.5,47.3,30L47.3,30z"/>
	<path class="st2" d="M46.8,22c0.1,0.3,0.2,0.6,0.2,1c0,3.3-8.6,8-22,8c-13.4,0-22-4.7-22-8c0-0.3,0.1-0.7,0.2-1
		c5.2,3.1,13.2,5,21.8,5C33.6,27,41.6,25.1,46.8,22 M47.3,18c-4.1,3.6-12.6,6-22.3,6c-9.7,0-18.1-2.4-22.3-6C1,19.5,0,21.2,0,23
		c0,6.1,11.2,11,25,11c13.8,0,25-4.9,25-11C50,21.2,49,19.5,47.3,18L47.3,18z"/>
	<path class="st2" d="M25,3c13.4,0,22,4.7,22,8s-8.6,8-22,8S3,14.3,3,11S11.6,3,25,3 M25,0C11.2,0,0,4.9,0,11s11.2,11,25,11
		c13.8,0,25-4.9,25-11S38.8,0,25,0L25,0z"/>
</g>
</svg>
