<?xml version="1.0" encoding="utf-8"?>
<!-- Generator: Adobe Illustrator 19.2.1, SVG Export Plug-In . SVG Version: 6.00 Build 0)  -->
<svg version="1.1" xmlns="http://www.w3.org/2000/svg" xmlns:xlink="http://www.w3.org/1999/xlink" x="0px" y="0px"
	 viewBox="0 0 191.5 62" style="enable-background:new 0 0 191.5 62;" xml:space="preserve">
<style type="text/css">
	.st0{display:none;}
	.st1{display:inline;fill:#E21313;}
	.st2{fill:#FFFFFF;}
	.st3{enable-background:new    ;}
</style>
<g id="Слой_2" class="st0">
	<rect x="-73.5" y="-35" class="st1" width="302" height="121.5"/>
</g>
<g id="logo">
	<g id="loho_img">
		<g id="Эллипс_1">
			<path class="st2" d="M21.1,62C9.5,62,0.1,52.6,0,41l0-0.1C0,35.3,2.2,30,6.1,26c4-4,9.2-6.2,14.9-6.2c0,0,0.1,0,0.1,0
				c5.6,0,10.8,2.2,14.8,6.1c4,4,6.2,9.2,6.3,14.9s-2.1,11-6.1,15S26.9,62,21.3,62C21.2,62,21.2,62,21.1,62z M21.1,22.8
				c0,0-0.1,0-0.1,0h0c-4.8,0-9.3,1.9-12.7,5.3S3,36.1,3,40.9L3,41c0.1,10,8.2,18,18.1,18c0,0,0.1,0,0.1,0c4.8,0,9.4-1.9,12.8-5.4
				s5.3-8,5.2-12.8c0-4.8-1.9-9.4-5.4-12.8C30.4,24.6,25.9,22.8,21.1,22.8z"/>
		</g>
		<g id="Эллипс_1_копия">
			<path class="st2" d="M21.1,42.2c-11.6,0-21-9.4-21.1-21l0-0.1C0,9.5,9.4,0,21,0c5.6,0,11,2.1,15,6.1c4,4,6.2,9.2,6.3,14.9
				s-2.1,11-6.1,15c-4,4-9.2,6.2-14.9,6.3C21.2,42.2,21.2,42.2,21.1,42.2z M21.1,3c0,0-0.1,0-0.1,0h0C11,3,3,11.2,3,21.1l0,0.1
				c0.1,10,8.2,18,18.1,18c0,0,0.1,0,0.1,0c4.8,0,9.4-1.9,12.8-5.4c3.4-3.4,5.3-8,5.2-12.8c0-4.8-1.9-9.4-5.4-12.8
				C30.4,4.9,25.9,3,21.1,3z"/>
		</g>
	</g>
	<g id="Abus" class="st3">
		<path class="st2" d="M85,54.3l-4.4-11H57.2l-4.4,11h-4.4L66.5,9.8h4.7l18.1,44.5H85z M68.9,13.8l-10.4,26h20.9L68.9,13.8z"/>
		<path class="st2" d="M95.7,54.3V9.8h3.5v17.5c2.6-3.7,6.6-6,11.1-6c8.6,0,14.3,6.7,14.3,17c0,10.3-5.8,16.9-14.3,16.9
			c-4.8,0-8.9-2.6-11.1-5.9v5.1H95.7z M109.7,52c7.2,0,11.2-5.9,11.2-13.8s-4-13.8-11.2-13.8c-4.4,0-8.7,2.8-10.6,5.9v16
			C101,49.3,105.3,52,109.7,52z"/>
		<path class="st2" d="M155.3,54.3v-4.7c-2.7,2.9-6.9,5.5-11.5,5.5c-6.6,0-10.1-3.1-10.1-10.3V22.1h3.5V44c0,6.3,3.1,8,7.8,8
			c4.1,0,8.3-2.5,10.4-5.3V22.1h3.5v32.3H155.3z"/>
		<path class="st2" d="M166.7,50l2.1-2.6c2.1,2.6,5.8,4.7,10.4,4.7c5.4,0,8.6-2.8,8.6-6.5c0-8.8-20.2-3.9-20.2-15.4
			c0-4.9,4.2-8.9,11.4-8.9c5.5,0,9.2,2.1,11.5,4.7l-1.9,2.5c-1.9-2.5-5.3-4.3-9.6-4.3c-5,0-8,2.5-8,5.9c0,8.1,20.2,3.1,20.2,15.6
			c0,5.2-4,9.5-12,9.5C173.8,55.1,169.9,53.6,166.7,50z"/>
	</g>
</g>
</svg>
