<?xml version="1.0" encoding="utf-8"?>
<!-- Generator: Adobe Illustrator 19.2.1, SVG Export Plug-In . SVG Version: 6.00 Build 0)  -->
<svg version="1.1" xmlns="http://www.w3.org/2000/svg" xmlns:xlink="http://www.w3.org/1999/xlink" x="0px" y="0px"
	 viewBox="0 0 34 75" style="enable-background:new 0 0 34 75;" xml:space="preserve">
<style type="text/css">
	.st0{display:none;}
	.st1{display:inline;fill:#8E2F2F;stroke:#FFFFFF;}
	.st2{fill:none;stroke:#FFFFFF;stroke-width:2;}
	.st3{fill:#FFFFFF;}
	.st4{display:inline;fill:#FFFFFF;}
</style>
<g id="Слой_2" class="st0">
	<rect x="-12.3" y="-14.3" class="st1" width="70" height="119.3"/>
</g>
<g id="mouse_scroll_down_svg">
	<path id="mouse1" class="st2" d="M17,1L17,1c8.8,0,16,7.2,16,16v18c0,8.8-7.2,16-16,16l0,0C8.2,51,1,43.8,1,35V17C1,8.2,8.2,1,17,1
		z"/>
	<g id="mouse1_scroll">
		<path class="st3" d="M17,8c-0.6,0-1,0.4-1,1v14c0,0.6,0.4,1,1,1s1-0.4,1-1V9C18,8.4,17.6,8,17,8L17,8z"/>
	</g>
	<g id="arrow" class="st0">
		<path class="st4" d="M10.4,58c-0.1,0-0.2,0-0.3,0.1c0,0,0,0,0,0c-0.2,0.2-0.2,0.4,0,0.6l0.3,0.3c0,0,0,0,0,0c0.1,0,0.2,0,0.3,0.1
			l5.9,5.8c0,0,0.1,0,0.1,0c-0.1,0-0.1-0.1-0.2-0.1c0,0,0,0,0,0c-0.2-0.2-0.2-0.4,0-0.6c0,0,0,0,0,0l0.2-0.2l-6-5.9
			C10.6,58,10.5,58,10.4,58L10.4,58z M22.6,58c-0.1,0-0.2,0-0.3,0.1L16.7,64l0.2,0.2c0.2,0.2,0.2,0.4,0,0.6c0,0,0,0,0,0
			c-0.1,0.1-0.1,0.1-0.2,0.1c0,0,0.1,0,0.1,0l5.5-5.8c0.1-0.1,0.2-0.1,0.3-0.1c0,0,0,0,0,0l0.3-0.3c0,0,0,0,0,0
			c0.2-0.2,0.2-0.4,0-0.6C22.8,58,22.7,58,22.6,58L22.6,58z M10.4,59c-0.1,0-0.2,0-0.3,0.1c0,0,0,0,0,0c-0.2,0.2-0.2,0.4,0,0.6
			l6.2,6.1c0,0,0,0,0,0c0.1,0.1,0.2,0.1,0.3,0.1c0,0,0.1,0,0.1,0c-0.1,0-0.1-0.1-0.2-0.1c0,0,0,0,0,0c-0.2-0.2-0.2-0.4,0-0.6
			c0,0,0,0,0,0l0.2-0.2l-0.1-0.1c0,0,0,0,0,0c-0.1,0-0.2,0-0.3-0.1c0,0,0,0,0,0L10.4,59L10.4,59z M22.6,59l-5.5,5.8
			c-0.1,0.1-0.2,0.1-0.3,0.1c0,0,0,0,0,0L16.7,65l0.2,0.2c0.2,0.2,0.2,0.4,0,0.6c0,0,0,0,0,0c-0.1,0.1-0.1,0.1-0.2,0.1
			c0,0,0.1,0,0.1,0c0.1,0,0.2,0,0.3-0.1l5.8-6.1c0,0,0,0,0,0c0.2-0.2,0.2-0.4,0-0.6C22.8,59,22.7,59,22.6,59L22.6,59z"/>
	</g>
	<g id="arrow2" class="st0">
		<path class="st4" d="M10.4,66.1c-0.1,0-0.2,0-0.3,0.1c0,0,0,0,0,0c-0.2,0.2-0.2,0.4,0,0.6l0.3,0.3c0,0,0,0,0,0
			c0.1,0,0.2,0,0.3,0.1c0,0,0,0,0,0l5.9,5.8c0,0,0.1,0,0.1,0c-0.1,0-0.1-0.1-0.2-0.1c-0.2-0.2-0.2-0.4,0-0.6c0,0,0,0,0,0l0.2-0.2
			l-6-5.9c0,0,0,0,0,0C10.6,66.1,10.5,66.1,10.4,66.1L10.4,66.1z M22.6,66.1c-0.1,0-0.2,0-0.3,0.1l-5.6,5.9l0.2,0.2
			c0.2,0.2,0.2,0.4,0,0.6c0,0,0,0,0,0c-0.1,0.1-0.1,0.1-0.2,0.1c0,0,0.1,0,0.1,0l5.5-5.8c0.1-0.1,0.2-0.1,0.3-0.1c0,0,0,0,0,0
			l0.3-0.3c0,0,0,0,0,0c0.2-0.2,0.2-0.4,0-0.6c0,0,0,0,0,0C22.8,66.1,22.7,66.1,22.6,66.1L22.6,66.1z M10.4,67.1
			c-0.1,0-0.2,0-0.3,0.1c0,0,0,0,0,0c-0.2,0.2-0.2,0.4,0,0.6l6.2,6.1c0.1,0.1,0.2,0.1,0.3,0.1c0,0,0.1,0,0.1,0
			c-0.1,0-0.1-0.1-0.2-0.1c-0.2-0.2-0.2-0.4,0-0.6c0,0,0,0,0,0l0.2-0.2L16.6,73c0,0,0,0,0,0c-0.1,0-0.2,0-0.3-0.1L10.4,67.1
			L10.4,67.1z M22.6,67.1l-5.5,5.8C17,73,16.9,73,16.8,73c0,0,0,0,0,0l-0.1,0.1l0.2,0.2c0.2,0.2,0.2,0.4,0,0.6c0,0,0,0,0,0
			c-0.1,0.1-0.1,0.1-0.2,0.1c0,0,0.1,0,0.1,0c0.1,0,0.2,0,0.3-0.1l5.8-6.1c0,0,0,0,0,0c0.2-0.2,0.2-0.4,0-0.6c0,0,0,0,0,0
			C22.8,67.2,22.7,67.1,22.6,67.1L22.6,67.1z"/>
	</g>
	<g>
		<path class="st3" d="M22.7,58.2c-0.2,0-0.4,0.1-0.5,0.2l-5.9,5.9c-0.3,0.3-0.3,0.8,0,1.1c0.1,0.1,0.3,0.2,0.5,0.2
			c0.2,0,0.4-0.1,0.5-0.2l5.9-5.9c0.3-0.3,0.3-0.8,0-1.1C23.1,58.3,22.9,58.2,22.7,58.2L22.7,58.2z"/>
		<path class="st3" d="M11,58.2c-0.2,0-0.4,0.1-0.5,0.2c-0.3,0.3-0.3,0.8,0,1.1l5.9,5.9c0.1,0.1,0.3,0.2,0.5,0.2
			c0.2,0,0.4-0.1,0.5-0.2c0.3-0.3,0.3-0.8,0-1.1l-5.9-5.9C11.4,58.3,11.2,58.2,11,58.2L11,58.2z"/>
	</g>
	<g>
		<path class="st3" d="M22.7,66.6c-0.2,0-0.4,0.1-0.5,0.2l-5.9,5.9c-0.3,0.3-0.3,0.8,0,1.1c0.1,0.1,0.3,0.2,0.5,0.2
			c0.2,0,0.4-0.1,0.5-0.2l5.9-5.9c0.3-0.3,0.3-0.8,0-1.1C23.1,66.7,22.9,66.6,22.7,66.6L22.7,66.6z"/>
		<path class="st3" d="M11,66.6c-0.2,0-0.4,0.1-0.5,0.2c-0.3,0.3-0.3,0.8,0,1.1l5.9,5.9c0.1,0.1,0.3,0.2,0.5,0.2
			c0.2,0,0.4-0.1,0.5-0.2c0.3-0.3,0.3-0.8,0-1.1l-5.9-5.9C11.4,66.7,11.2,66.6,11,66.6L11,66.6z"/>
	</g>
</g>
</svg>
