<?xml version="1.0" encoding="utf-8"?>
<!-- Generator: Adobe Illustrator 19.2.1, SVG Export Plug-In . SVG Version: 6.00 Build 0)  -->
<svg version="1.1" xmlns="http://www.w3.org/2000/svg" xmlns:xlink="http://www.w3.org/1999/xlink" x="0px" y="0px"
	 viewBox="0 0 32 39.5" style="enable-background:new 0 0 32 39.5;" xml:space="preserve">
<style type="text/css">
	.st0{display:none;}
	.st1{display:inline;fill:#9E3333;stroke:#000000;stroke-miterlimit:10;}
	.st2{fill:#FFFFFF;}
</style>
<g id="Слой_1" class="st0">
	<rect x="-183" y="-208.4" class="st1" width="496" height="491.9"/>
</g>
<g id="Слой_2">
	<path class="st2" d="M26.6,0.1c-0.5,0-1,0.3-1.3,0.7l-21,36.4c-0.4,0.7-0.2,1.6,0.5,2c0.2,0.1,0.5,0.2,0.7,0.2c0.5,0,1-0.3,1.3-0.7
		l21-36.4c0.4-0.7,0.2-1.6-0.5-2C27.1,0.2,26.8,0.1,26.6,0.1L26.6,0.1z"/>
	<path class="st2" d="M25,28c2.2,0,4,1.8,4,4c0,2.2-1.8,4-4,4s-4-1.8-4-4C21,29.8,22.8,28,25,28 M25,25c-3.9,0-7,3.1-7,7s3.1,7,7,7
		c3.9,0,7-3.1,7-7S28.9,25,25,25L25,25z"/>
	<path class="st2" d="M7,3c2.2,0,4,1.8,4,4c0,2.2-1.8,4-4,4S3,9.2,3,7C3,4.8,4.8,3,7,3 M7,0C3.1,0,0,3.1,0,7s3.1,7,7,7
		c3.9,0,7-3.1,7-7S10.9,0,7,0L7,0z"/>
</g>
</svg>
