<?xml version="1.0" encoding="utf-8"?>
<!-- Generator: Adobe Illustrator 19.2.1, SVG Export Plug-In . SVG Version: 6.00 Build 0)  -->
<svg version="1.1" xmlns="http://www.w3.org/2000/svg" xmlns:xlink="http://www.w3.org/1999/xlink" x="0px" y="0px"
	 viewBox="0 0 500 500" style="enable-background:new 0 0 500 500;" xml:space="preserve">
<style type="text/css">
	.st0{display:none;}
	.st1{display:inline;fill:#9E3333;stroke:#000000;stroke-miterlimit:10;}
	.st2{fill:#FFFFFF;}
</style>
<g id="Слой_1" class="st0">
	<rect y="6.6" class="st1" width="496" height="491.9"/>
</g>
<g id="Слой_2">
	<g>
		<path class="st2" d="M209.6,215.1c-0.5,0-1,0.3-1.3,0.7l-21,36.4c-0.4,0.7-0.2,1.6,0.5,2c0.2,0.1,0.5,0.2,0.7,0.2
			c0.5,0,1-0.3,1.3-0.7l21-36.4c0.4-0.7,0.2-1.6-0.5-2C210.1,215.2,209.8,215.1,209.6,215.1L209.6,215.1z"/>
	</g>
	<g>
		<path class="st2" d="M208,243c2.2,0,4,1.8,4,4c0,2.2-1.8,4-4,4s-4-1.8-4-4C204,244.8,205.8,243,208,243 M208,240c-3.9,0-7,3.1-7,7
			s3.1,7,7,7c3.9,0,7-3.1,7-7S211.9,240,208,240L208,240z"/>
	</g>
	<g>
		<path class="st2" d="M190,218c2.2,0,4,1.8,4,4c0,2.2-1.8,4-4,4s-4-1.8-4-4C186,219.8,187.8,218,190,218 M190,215c-3.9,0-7,3.1-7,7
			s3.1,7,7,7c3.9,0,7-3.1,7-7S193.9,215,190,215L190,215z"/>
	</g>
</g>
</svg>
