<?xml version="1.0" encoding="utf-8"?>
<!-- Generator: Adobe Illustrator 19.2.1, SVG Export Plug-In . SVG Version: 6.00 Build 0)  -->
<svg version="1.1" id="mouse_scroll_down_svg" xmlns="http://www.w3.org/2000/svg" xmlns:xlink="http://www.w3.org/1999/xlink"
	 x="0px" y="0px" viewBox="0 0 34 74" style="enable-background:new 0 0 34 74;" xml:space="preserve">
<style type="text/css">
	.st0{fill:#FFFFFF;}
	.st1{display:none;}
	.st2{display:inline;fill:#FFFFFF;}
</style>
<g id="mouse1">
	<path class="st0" d="M17,52C7.6,52,0,44.4,0,35V17C0,7.6,7.6,0,17,0s17,7.6,17,17v18C34,44.4,26.4,52,17,52z M17,2
		C8.7,2,2,8.7,2,17v18c0,8.3,6.7,15,15,15c8.3,0,15-6.7,15-15V17C32,8.7,25.3,2,17,2z"/>
</g>
<g id="mouse1_scroll">
	<path class="st0" d="M17,8c-0.6,0-1,0.4-1,1v14c0,0.6,0.4,1,1,1s1-0.4,1-1V9C18,8.4,17.6,8,17,8L17,8z"/>
</g>
<g id="arrow" class="st1">
	<path class="st2" d="M10.4,58c-0.1,0-0.2,0-0.3,0.1c0,0,0,0,0,0c-0.2,0.2-0.2,0.4,0,0.6l0.3,0.3c0,0,0,0,0,0c0.1,0,0.2,0,0.3,0.1
		l5.9,5.8c0,0,0.1,0,0.1,0c-0.1,0-0.1-0.1-0.2-0.1c0,0,0,0,0,0c-0.2-0.2-0.2-0.4,0-0.6c0,0,0,0,0,0l0.2-0.2l-6-5.9
		C10.6,58,10.5,58,10.4,58L10.4,58z M22.6,58c-0.1,0-0.2,0-0.3,0.1L16.7,64l0.2,0.2c0.2,0.2,0.2,0.4,0,0.6c0,0,0,0,0,0
		c-0.1,0.1-0.1,0.1-0.2,0.1c0,0,0.1,0,0.1,0l5.5-5.8c0.1-0.1,0.2-0.1,0.3-0.1c0,0,0,0,0,0l0.3-0.3c0,0,0,0,0,0
		c0.2-0.2,0.2-0.4,0-0.6C22.8,58,22.7,58,22.6,58L22.6,58z M10.4,59c-0.1,0-0.2,0-0.3,0.1c0,0,0,0,0,0c-0.2,0.2-0.2,0.4,0,0.6
		l6.2,6.1c0,0,0,0,0,0c0.1,0.1,0.2,0.1,0.3,0.1c0,0,0.1,0,0.1,0c-0.1,0-0.1-0.1-0.2-0.1c0,0,0,0,0,0c-0.2-0.2-0.2-0.4,0-0.6
		c0,0,0,0,0,0l0.2-0.2l-0.1-0.1c0,0,0,0,0,0c-0.1,0-0.2,0-0.3-0.1c0,0,0,0,0,0L10.4,59L10.4,59z M22.6,59l-5.5,5.8
		c-0.1,0.1-0.2,0.1-0.3,0.1c0,0,0,0,0,0L16.7,65l0.2,0.2c0.2,0.2,0.2,0.4,0,0.6c0,0,0,0,0,0c-0.1,0.1-0.1,0.1-0.2,0.1
		c0,0,0.1,0,0.1,0c0.1,0,0.2,0,0.3-0.1l5.8-6.1c0,0,0,0,0,0c0.2-0.2,0.2-0.4,0-0.6C22.8,59,22.7,59,22.6,59L22.6,59z"/>
</g>
<g id="arrow2" class="st1">
	<path class="st2" d="M10.4,66.1c-0.1,0-0.2,0-0.3,0.1c0,0,0,0,0,0c-0.2,0.2-0.2,0.4,0,0.6l0.3,0.3c0,0,0,0,0,0c0.1,0,0.2,0,0.3,0.1
		c0,0,0,0,0,0l5.9,5.8c0,0,0.1,0,0.1,0c-0.1,0-0.1-0.1-0.2-0.1c-0.2-0.2-0.2-0.4,0-0.6c0,0,0,0,0,0l0.2-0.2l-6-5.9c0,0,0,0,0,0
		C10.6,66.1,10.5,66.1,10.4,66.1L10.4,66.1z M22.6,66.1c-0.1,0-0.2,0-0.3,0.1l-5.6,5.9l0.2,0.2c0.2,0.2,0.2,0.4,0,0.6c0,0,0,0,0,0
		c-0.1,0.1-0.1,0.1-0.2,0.1c0,0,0.1,0,0.1,0l5.5-5.8c0.1-0.1,0.2-0.1,0.3-0.1c0,0,0,0,0,0l0.3-0.3c0,0,0,0,0,0
		c0.2-0.2,0.2-0.4,0-0.6c0,0,0,0,0,0C22.8,66.1,22.7,66.1,22.6,66.1L22.6,66.1z M10.4,67.1c-0.1,0-0.2,0-0.3,0.1c0,0,0,0,0,0
		c-0.2,0.2-0.2,0.4,0,0.6l6.2,6.1c0.1,0.1,0.2,0.1,0.3,0.1c0,0,0.1,0,0.1,0c-0.1,0-0.1-0.1-0.2-0.1c-0.2-0.2-0.2-0.4,0-0.6
		c0,0,0,0,0,0l0.2-0.2L16.6,73c0,0,0,0,0,0c-0.1,0-0.2,0-0.3-0.1L10.4,67.1L10.4,67.1z M22.6,67.1l-5.5,5.8C17,73,16.9,73,16.8,73
		c0,0,0,0,0,0l-0.1,0.1l0.2,0.2c0.2,0.2,0.2,0.4,0,0.6c0,0,0,0,0,0c-0.1,0.1-0.1,0.1-0.2,0.1c0,0,0.1,0,0.1,0c0.1,0,0.2,0,0.3-0.1
		l5.8-6.1c0,0,0,0,0,0c0.2-0.2,0.2-0.4,0-0.6c0,0,0,0,0,0C22.8,67.2,22.7,67.1,22.6,67.1L22.6,67.1z"/>
</g>
<path class="st0" d="M23.4,58.4c-0.1-0.1-0.3-0.2-0.5-0.2c-0.2,0-0.4,0.1-0.5,0.2L17,63.8l-5.3-5.3c-0.1-0.1-0.3-0.2-0.5-0.2
	c-0.2,0-0.4,0.1-0.5,0.2c-0.3,0.3-0.3,0.8,0,1.1l5.9,5.9c0.1,0.1,0.3,0.2,0.5,0.2c0.2,0,0.4-0.1,0.5-0.2c0,0,0,0,0,0c0,0,0,0,0,0
	l5.9-5.9C23.7,59.2,23.7,58.7,23.4,58.4z"/>
<path class="st0" d="M23.4,66.9c-0.1-0.1-0.3-0.2-0.5-0.2c-0.2,0-0.4,0.1-0.5,0.2L17,72.2l-5.3-5.3c-0.1-0.1-0.3-0.2-0.5-0.2
	c-0.2,0-0.4,0.1-0.5,0.2c-0.3,0.3-0.3,0.8,0,1.1l5.9,5.9c0.1,0.1,0.3,0.2,0.5,0.2c0.2,0,0.4-0.1,0.5-0.2c0,0,0,0,0,0c0,0,0,0,0,0
	l5.9-5.9C23.7,67.6,23.7,67.1,23.4,66.9z"/>
</svg>
