<svg id="mouse_scroll_down_svg" data-name="mouse scroll down svg" xmlns="http://www.w3.org/2000/svg" width="34" height="75" viewBox="0 0 34 75">
  <metadata><?xpacket begin="﻿" id="W5M0MpCehiHzreSzNTczkc9d"?>
<x:xmpmeta xmlns:x="adobe:ns:meta/" x:xmptk="Adobe XMP Core 5.6-c142 79.160924, 2017/07/13-01:06:39        ">
   <rdf:RDF xmlns:rdf="http://www.w3.org/1999/02/22-rdf-syntax-ns#">
      <rdf:Description rdf:about=""/>
   </rdf:RDF>
</x:xmpmeta>
                                                                                                    
                                                                                                    
                                                                                                    
                                                                                                    
                                                                                                    
                                                                                                    
                                                                                                    
                                                                                                    
                                                                                                    
                                                                                                    
                                                                                                    
                                                                                                    
                                                                                                    
                                                                                                    
                                                                                                    
                                                                                                    
                                                                                                    
                                                                                                    
                                                                                                    
                                                                                                    
                           
<?xpacket end="w"?></metadata>
<defs>
    <style>
      .cls-1, .cls-2, .cls-3 {
        fill: none;
        stroke: #fff;
      }

      .cls-1, .cls-3 {
        stroke-width: 2px;
      }

      .cls-2 {
        stroke-width: 3px;
      }

      .cls-3 {
        fill-rule: evenodd;
      }
    </style>
  </defs>
  <rect id="mouse1" class="cls-1" x="1" y="1" width="32" height="50" rx="16" ry="16"/>
  <rect id="mouse1_scroll" data-name="mouse1 scroll" class="cls-2" x="16" y="8" width="2" height="16" rx="1" ry="1"/>
  <path id="arrow" class="cls-3" d="M971.876,1015.12a0.41,0.41,0,0,1,0,.59l-5.756,6.06a0.42,0.42,0,0,1-.6,0,0.41,0.41,0,0,1,0-.59l5.757-6.06A0.438,0.438,0,0,1,971.876,1015.12Zm-12.753,0a0.439,0.439,0,0,1,.6,0l6.183,6.06a0.41,0.41,0,0,1,0,.59,0.42,0.42,0,0,1-.6,0l-6.183-6.06A0.412,0.412,0,0,1,959.123,1015.12Zm12.753-1a0.41,0.41,0,0,1,0,.59l-5.756,6.06a0.42,0.42,0,0,1-.6,0,0.41,0.41,0,0,1,0-.59l5.757-6.06A0.438,0.438,0,0,1,971.876,1014.12Zm-12.753,0a0.439,0.439,0,0,1,.6,0l6.183,6.06a0.41,0.41,0,0,1,0,.59,0.42,0.42,0,0,1-.6,0l-6.183-6.06A0.412,0.412,0,0,1,959.123,1014.12Z" transform="translate(-949 -956)"/>
  <path id="arrow2" class="cls-3" d="M971.876,1022.23a0.41,0.41,0,0,1,0,.59l-5.756,6.06a0.439,0.439,0,0,1-.6,0,0.41,0.41,0,0,1,0-.59l5.757-6.06A0.419,0.419,0,0,1,971.876,1022.23Zm-12.753,0a0.42,0.42,0,0,1,.6,0l6.183,6.06a0.41,0.41,0,0,1,0,.59,0.439,0.439,0,0,1-.6,0l-6.183-6.06A0.412,0.412,0,0,1,959.123,1022.23Zm12.753,1a0.41,0.41,0,0,1,0,.59l-5.756,6.06a0.439,0.439,0,0,1-.6,0,0.41,0.41,0,0,1,0-.59l5.757-6.06A0.419,0.419,0,0,1,971.876,1023.23Zm-12.753,0a0.42,0.42,0,0,1,.6,0l6.183,6.06a0.41,0.41,0,0,1,0,.59,0.439,0.439,0,0,1-.6,0l-6.183-6.06A0.412,0.412,0,0,1,959.123,1023.23Z" transform="translate(-949 -956)"/>
</svg>
