<svg width="20" height="24" viewBox="0 0 20 24" fill="none" xmlns="http://www.w3.org/2000/svg">
<path d="M13.4726 0H3.83317C2.42494 0 1.2788 1.14694 1.2788 2.55437V12H1.02931C0.460946 12 0 12.4605 0 13.0293V19.2717C0 19.8405 0.460896 20.301 1.02931 20.301H1.2788V21.4456C1.2788 22.8546 2.42494 24 3.83317 24H16.9857C18.393 24 19.5393 22.8546 19.5393 21.4456V6.04551L13.4726 0ZM16.9857 22.4357H3.83317C3.2879 22.4357 2.84388 21.9916 2.84388 21.4456V20.301H15.1047C15.6732 20.301 16.1341 19.8405 16.1341 19.2717V13.0293C16.1341 12.4605 15.6732 12 15.1047 12H2.84388V2.55437C2.84388 2.00989 3.28795 1.56587 3.83317 1.56587L12.8873 1.55641V4.90315C12.8873 5.88069 13.6805 6.67461 14.6588 6.67461L17.9373 6.6652L17.9742 21.4456C17.9742 21.9916 17.5309 22.4357 16.9857 22.4357Z" fill="#3F9EFE"/>
<path d="M2.2775 3.6075L1.94 2.61C1.915 2.54667 1.88833 2.4725 1.86 2.3875C1.83167 2.30083 1.80333 2.2075 1.775 2.1075C1.75 2.20917 1.72333 2.30333 1.695 2.39C1.66667 2.47667 1.64 2.55167 1.615 2.615L1.28 3.6075H2.2775ZM3.62 5H2.965C2.89167 5 2.8325 4.98333 2.7875 4.95C2.7425 4.915 2.70833 4.87083 2.685 4.8175L2.47 4.1825H1.085L0.87 4.8175C0.851667 4.86417 0.818333 4.90667 0.77 4.945C0.723333 4.98167 0.665 5 0.595 5H-0.065L1.345 1.3575H2.21L3.62 5ZM6.87195 1.3575L5.41195 5H4.64695L3.18695 1.3575H3.86695C3.94029 1.3575 3.99945 1.375 4.04445 1.41C4.08945 1.44333 4.12362 1.48667 4.14695 1.54L4.85195 3.49C4.88529 3.575 4.91779 3.66833 4.94945 3.77C4.98112 3.87 5.01112 3.975 5.03945 4.085C5.06279 3.975 5.08862 3.87 5.11695 3.77C5.14695 3.66833 5.17862 3.575 5.21195 3.49L5.91195 1.54C5.93029 1.49333 5.96279 1.45167 6.00945 1.415C6.05779 1.37667 6.11695 1.3575 6.18695 1.3575H6.87195ZM8.00914 5H7.15914V1.3575H8.00914V5Z" transform="translate(2 13)" fill="white"/>
</svg>
