<svg width="20" height="24" viewBox="0 0 20 24" fill="none" xmlns="http://www.w3.org/2000/svg">
<path d="M13.4726 0H3.83317C2.42494 0 1.2788 1.14694 1.2788 2.55437V12H1.02931C0.460946 12 0 12.4605 0 13.0293V19.2717C0 19.8405 0.460896 20.301 1.02931 20.301H1.2788V21.4456C1.2788 22.8546 2.42494 24 3.83317 24H16.9857C18.393 24 19.5393 22.8546 19.5393 21.4456V6.04551L13.4726 0ZM16.9857 22.4357H3.83317C3.2879 22.4357 2.84388 21.9916 2.84388 21.4456V20.301H16.1047C16.6732 20.301 17.1341 19.8405 17.1341 19.2717V13.0293C17.1341 12.4605 16.6732 12 16.1047 12H2.84388V2.55437C2.84388 2.00989 3.28795 1.56587 3.83317 1.56587L12.8873 1.55641V4.90315C12.8873 5.88069 13.6805 6.67461 14.6588 6.67461L17.9373 6.6652L17.9742 21.4456C17.9742 21.9916 17.5309 22.4357 16.9857 22.4357Z" fill="#3F9EFE"/>
<path d="M3.6575 3.1775C3.6575 3.44083 3.61167 3.68417 3.52 3.9075C3.43 4.12917 3.3025 4.32167 3.1375 4.485C2.9725 4.64667 2.77333 4.77333 2.54 4.865C2.30833 4.955 2.05083 5 1.7675 5H0.3525V1.3575H1.7675C2.05083 1.3575 2.30833 1.40333 2.54 1.495C2.77333 1.58667 2.9725 1.71333 3.1375 1.875C3.3025 2.03667 3.43 2.22917 3.52 2.4525C3.61167 2.67417 3.6575 2.91583 3.6575 3.1775ZM2.7925 3.1775C2.7925 2.9975 2.76917 2.835 2.7225 2.69C2.67583 2.545 2.60833 2.4225 2.52 2.3225C2.43333 2.22083 2.32667 2.14333 2.2 2.09C2.07333 2.035 1.92917 2.0075 1.7675 2.0075H1.2025V4.35H1.7675C1.92917 4.35 2.07333 4.32333 2.2 4.27C2.32667 4.215 2.43333 4.1375 2.52 4.0375C2.60833 3.93583 2.67583 3.8125 2.7225 3.6675C2.76917 3.5225 2.7925 3.35917 2.7925 3.1775ZM7.73121 3.1775C7.73121 3.44083 7.68538 3.68583 7.59371 3.9125C7.50371 4.13917 7.37621 4.33667 7.21121 4.505C7.04621 4.67167 6.84704 4.8025 6.61371 4.8975C6.38204 4.9925 6.12454 5.04 5.84121 5.04C5.55788 5.04 5.29954 4.9925 5.06621 4.8975C4.83288 4.8025 4.63288 4.67167 4.46621 4.505C4.30121 4.33667 4.17288 4.13917 4.08121 3.9125C3.99121 3.68583 3.94621 3.44083 3.94621 3.1775C3.94621 2.91417 3.99121 2.66917 4.08121 2.4425C4.17288 2.21583 4.30121 2.01917 4.46621 1.8525C4.63288 1.68583 4.83288 1.555 5.06621 1.46C5.29954 1.365 5.55788 1.3175 5.84121 1.3175C6.12454 1.3175 6.38204 1.36583 6.61371 1.4625C6.84704 1.5575 7.04621 1.68833 7.21121 1.855C7.37621 2.02167 7.50371 2.21833 7.59371 2.445C7.68538 2.67167 7.73121 2.91583 7.73121 3.1775ZM6.86621 3.1775C6.86621 2.9975 6.84288 2.83583 6.79621 2.6925C6.74954 2.5475 6.68204 2.425 6.59371 2.325C6.50704 2.225 6.40038 2.14833 6.27371 2.095C6.14704 2.04167 6.00288 2.015 5.84121 2.015C5.67788 2.015 5.53204 2.04167 5.40371 2.095C5.27704 2.14833 5.16954 2.225 5.08121 2.325C4.99454 2.425 4.92788 2.5475 4.88121 2.6925C4.83454 2.83583 4.81121 2.9975 4.81121 3.1775C4.81121 3.35917 4.83454 3.5225 4.88121 3.6675C4.92788 3.81083 4.99454 3.9325 5.08121 4.0325C5.16954 4.1325 5.27704 4.20917 5.40371 4.2625C5.53204 4.31417 5.67788 4.34 5.84121 4.34C6.00288 4.34 6.14704 4.31417 6.27371 4.2625C6.40038 4.20917 6.50704 4.1325 6.59371 4.0325C6.68204 3.9325 6.74954 3.81083 6.79621 3.6675C6.84288 3.5225 6.86621 3.35917 6.86621 3.1775ZM10.6835 4.0575C10.7035 4.0575 10.7235 4.06167 10.7435 4.07C10.7635 4.07667 10.7826 4.08917 10.801 4.1075L11.136 4.46C10.9893 4.65167 10.8051 4.79667 10.5835 4.895C10.3635 4.99167 10.1026 5.04 9.80098 5.04C9.52431 5.04 9.27598 4.99333 9.05598 4.9C8.83764 4.805 8.65181 4.675 8.49848 4.51C8.34681 4.34333 8.23014 4.14667 8.14848 3.92C8.06681 3.69167 8.02598 3.44417 8.02598 3.1775C8.02598 2.90583 8.07014 2.65667 8.15848 2.43C8.24681 2.20167 8.37098 2.005 8.53098 1.84C8.69098 1.675 8.88264 1.54667 9.10598 1.455C9.32931 1.36333 9.57514 1.3175 9.84348 1.3175C9.98014 1.3175 10.1085 1.33 10.2285 1.355C10.3501 1.37833 10.4635 1.41167 10.5685 1.455C10.6735 1.49667 10.7701 1.5475 10.8585 1.6075C10.9468 1.6675 11.0251 1.7325 11.0935 1.8025L10.8085 2.185C10.7901 2.20833 10.7685 2.23 10.7435 2.25C10.7185 2.26833 10.6835 2.2775 10.6385 2.2775C10.6085 2.2775 10.5801 2.27083 10.5535 2.2575C10.5268 2.24417 10.4985 2.22833 10.4685 2.21C10.4385 2.19 10.4051 2.16917 10.3685 2.1475C10.3335 2.12417 10.291 2.10333 10.241 2.085C10.1926 2.065 10.1351 2.04833 10.0685 2.035C10.0035 2.02167 9.92681 2.015 9.83848 2.015C9.69848 2.015 9.57014 2.04083 9.45348 2.0925C9.33848 2.14417 9.23848 2.22 9.15348 2.32C9.07014 2.41833 9.00514 2.54 8.95848 2.685C8.91348 2.82833 8.89098 2.9925 8.89098 3.1775C8.89098 3.36417 8.91598 3.53 8.96598 3.675C9.01764 3.82 9.08681 3.9425 9.17348 4.0425C9.26181 4.14083 9.36431 4.21583 9.48098 4.2675C9.59764 4.31917 9.72264 4.345 9.85598 4.345C9.93264 4.345 10.0026 4.34167 10.066 4.335C10.1293 4.32667 10.1885 4.31417 10.2435 4.2975C10.2985 4.27917 10.3501 4.25583 10.3985 4.2275C10.4468 4.1975 10.496 4.16 10.546 4.115C10.566 4.09833 10.5876 4.085 10.611 4.075C10.6343 4.06333 10.6585 4.0575 10.6835 4.0575ZM14.6298 5H13.7848C13.7298 5 13.6848 4.98667 13.6498 4.96C13.6165 4.93333 13.5898 4.90167 13.5698 4.865L12.8398 3.59C12.8265 3.62667 12.8115 3.65833 12.7948 3.685L12.1148 4.865C12.0915 4.89833 12.064 4.92917 12.0323 4.9575C12.0007 4.98583 11.9598 5 11.9098 5H11.1198L12.2923 3.125L11.1648 1.3575H12.0098C12.0648 1.3575 12.1048 1.365 12.1298 1.38C12.1565 1.39333 12.1798 1.41667 12.1998 1.45L12.9248 2.6775C12.9332 2.65583 12.9423 2.635 12.9523 2.615C12.964 2.595 12.9765 2.57417 12.9898 2.5525L13.6248 1.4625C13.6482 1.42583 13.6723 1.39917 13.6973 1.3825C13.724 1.36583 13.7565 1.3575 13.7948 1.3575H14.6048L13.4623 3.09L14.6298 5Z" transform="translate(1 13)" fill="white"/>
</svg>
