<svg width="20" height="24" viewBox="0 0 20 24" fill="none" xmlns="http://www.w3.org/2000/svg">
<path d="M13.4726 0H3.83317C2.42494 0 1.2788 1.14694 1.2788 2.55437V12H1.02931C0.460946 12 0 12.4605 0 13.0293V19.2717C0 19.8405 0.460896 20.301 1.02931 20.301H1.2788V21.4456C1.2788 22.8546 2.42494 24 3.83317 24H16.9857C18.393 24 19.5393 22.8546 19.5393 21.4456V6.04551L13.4726 0ZM16.9857 22.4357H3.83317C3.2879 22.4357 2.84388 21.9916 2.84388 21.4456V20.301H15.1047C15.6732 20.301 16.1341 19.8405 16.1341 19.2717V13.0293C16.1341 12.4605 15.6732 12 15.1047 12H2.84388V2.55437C2.84388 2.00989 3.28795 1.56587 3.83317 1.56587L12.8873 1.55641V4.90315C12.8873 5.88069 13.6805 6.67461 14.6588 6.67461L17.9373 6.6652L17.9742 21.4456C17.9742 21.9916 17.5309 22.4357 16.9857 22.4357Z" fill="#3F9EFE"/>
<path d="M3.5325 1.3575V5H2.6825V3.46H1.2025V5H0.3525V1.3575H1.2025V2.88H2.6825V1.3575H3.5325ZM6.85672 2.0275H5.83172V5H4.98672V2.0275H3.96172V1.3575H6.85672V2.0275ZM11.3811 1.3575V5H10.6361V2.905C10.6361 2.85667 10.6369 2.80417 10.6386 2.7475C10.6419 2.69083 10.6469 2.63333 10.6536 2.575L9.68609 4.4475C9.65609 4.50583 9.61526 4.55 9.56359 4.58C9.51359 4.61 9.45609 4.625 9.39109 4.625H9.27609C9.21109 4.625 9.15276 4.61 9.10109 4.58C9.05109 4.55 9.01109 4.50583 8.98109 4.4475L8.01359 2.57C8.01859 2.63 8.02276 2.68917 8.02609 2.7475C8.02943 2.80417 8.03109 2.85667 8.03109 2.905V5H7.28609V1.3575H7.93109C7.96776 1.3575 7.99943 1.35833 8.02609 1.36C8.05443 1.36167 8.07943 1.36667 8.10109 1.375C8.12276 1.38333 8.14193 1.39667 8.15859 1.415C8.17693 1.43167 8.19443 1.45583 8.21109 1.4875L9.14859 3.335C9.18193 3.39833 9.21359 3.46417 9.24359 3.5325C9.27526 3.60083 9.30526 3.67083 9.33359 3.7425C9.36193 3.66917 9.39109 3.5975 9.42109 3.5275C9.45276 3.4575 9.48609 3.39083 9.52109 3.3275L10.4561 1.4875C10.4728 1.45583 10.4894 1.43167 10.5061 1.415C10.5244 1.39667 10.5444 1.38333 10.5661 1.375C10.5878 1.36667 10.6119 1.36167 10.6386 1.36C10.6669 1.35833 10.6994 1.3575 10.7361 1.3575H11.3811ZM14.2809 4.325V5H12.0859V1.3575H12.9309V4.325H14.2809Z" transform="translate(1 13)" fill="white"/>
</svg>
