<svg width="20" height="24" viewBox="0 0 20 24" fill="none" xmlns="http://www.w3.org/2000/svg">
<path d="M13.4726 0H3.83317C2.42494 0 1.2788 1.14694 1.2788 2.55437V12H1.02931C0.460946 12 0 12.4605 0 13.0293V19.2717C0 19.8405 0.460896 20.301 1.02931 20.301H1.2788V21.4456C1.2788 22.8546 2.42494 24 3.83317 24H16.9857C18.393 24 19.5393 22.8546 19.5393 21.4456V6.04551L13.4726 0ZM16.9857 22.4357H3.83317C3.2879 22.4357 2.84388 21.9916 2.84388 21.4456V20.301H15.1047C15.6732 20.301 16.1341 19.8405 16.1341 19.2717V13.0293C16.1341 12.4605 15.6732 12 15.1047 12H2.84388V2.55437C2.84388 2.00989 3.28795 1.56587 3.83317 1.56587L12.8873 1.55641V4.90315C12.8873 5.88069 13.6805 6.67461 14.6588 6.67461L17.9373 6.6652L17.9742 21.4456C17.9742 21.9916 17.5309 22.4357 16.9857 22.4357Z" fill="#3F9EFE"/>
<path d="M1.86 3.68C1.86 3.88333 1.83417 4.06833 1.7825 4.235C1.7325 4.40167 1.65583 4.545 1.5525 4.665C1.45083 4.78333 1.3225 4.87583 1.1675 4.9425C1.0125 5.0075 0.83 5.04 0.62 5.04C0.525 5.04 0.430833 5.035 0.3375 5.025C0.245833 5.015 0.15 4.99833 0.05 4.975L0.095 4.4825C0.1 4.43917 0.1175 4.40417 0.1475 4.3775C0.1775 4.35083 0.22 4.3375 0.275 4.3375C0.303333 4.3375 0.338333 4.3425 0.38 4.3525C0.421667 4.36083 0.471667 4.365 0.53 4.365C0.611667 4.365 0.6825 4.35417 0.7425 4.3325C0.804167 4.30917 0.855 4.27167 0.895 4.22C0.935 4.16667 0.965 4.0975 0.985 4.0125C1.005 3.9275 1.015 3.8225 1.015 3.6975V1.3575H1.86V3.68ZM3.81523 3.145C4.03523 3.145 4.19357 3.0925 4.29023 2.9875C4.3869 2.8825 4.43523 2.73583 4.43523 2.5475C4.43523 2.46417 4.42273 2.38833 4.39773 2.32C4.37273 2.25167 4.3344 2.19333 4.28273 2.145C4.23273 2.095 4.16857 2.05667 4.09023 2.03C4.01357 2.00333 3.9219 1.99 3.81523 1.99H3.37523V3.145H3.81523ZM3.81523 1.3575C4.0719 1.3575 4.2919 1.38833 4.47523 1.45C4.66023 1.51 4.8119 1.59333 4.93023 1.7C5.05023 1.80667 5.13857 1.9325 5.19523 2.0775C5.2519 2.2225 5.28023 2.37917 5.28023 2.5475C5.28023 2.72917 5.25107 2.89583 5.19273 3.0475C5.1344 3.19917 5.04523 3.32917 4.92523 3.4375C4.80523 3.54583 4.65273 3.63083 4.46773 3.6925C4.2844 3.7525 4.0669 3.7825 3.81523 3.7825H3.37523V5H2.53023V1.3575H3.81523ZM7.45895 3.1125H8.75395V4.65C8.56728 4.78667 8.36811 4.88583 8.15645 4.9475C7.94645 5.00917 7.72645 5.04 7.49645 5.04C7.19645 5.04 6.92311 4.99333 6.67645 4.9C6.43145 4.805 6.22145 4.675 6.04645 4.51C5.87145 4.34333 5.73645 4.14667 5.64145 3.92C5.54645 3.69167 5.49895 3.44417 5.49895 3.1775C5.49895 2.90583 5.54395 2.65667 5.63395 2.43C5.72395 2.20167 5.85228 2.005 6.01895 1.84C6.18728 1.675 6.38978 1.54667 6.62645 1.455C6.86478 1.36333 7.13061 1.3175 7.42395 1.3175C7.57561 1.3175 7.71811 1.33 7.85145 1.355C7.98478 1.38 8.10728 1.41417 8.21895 1.4575C8.33228 1.50083 8.43561 1.5525 8.52895 1.6125C8.62228 1.6725 8.70561 1.7375 8.77895 1.8075L8.53395 2.18C8.49561 2.23833 8.44561 2.27417 8.38395 2.2875C8.32395 2.30083 8.25895 2.28583 8.18895 2.2425C8.12228 2.2025 8.05895 2.16833 7.99895 2.14C7.94061 2.11 7.88061 2.08583 7.81895 2.0675C7.75728 2.04917 7.69228 2.03583 7.62395 2.0275C7.55561 2.01917 7.47895 2.015 7.39395 2.015C7.23561 2.015 7.09311 2.04333 6.96645 2.1C6.83978 2.155 6.73145 2.23333 6.64145 2.335C6.55311 2.43667 6.48478 2.55917 6.43645 2.7025C6.38811 2.84417 6.36395 3.0025 6.36395 3.1775C6.36395 3.37083 6.39061 3.5425 6.44395 3.6925C6.49728 3.8425 6.57228 3.96917 6.66895 4.0725C6.76728 4.17583 6.88395 4.255 7.01895 4.31C7.15561 4.36333 7.30645 4.39 7.47145 4.39C7.57311 4.39 7.66478 4.38 7.74645 4.36C7.82978 4.34 7.91061 4.31333 7.98895 4.28V3.7275H7.62895C7.57561 3.7275 7.53395 3.71333 7.50395 3.685C7.47395 3.65667 7.45895 3.62083 7.45895 3.5775V3.1125Z" transform="translate(2 13)" fill="white"/>
</svg>
