<svg width="20" height="24" viewBox="0 0 20 24" fill="none" xmlns="http://www.w3.org/2000/svg">
<path d="M13.4726 0H3.83317C2.42494 0 1.2788 1.14694 1.2788 2.55437V12H1.02931C0.460946 12 0 12.4605 0 13.0293V19.2717C0 19.8405 0.460896 20.301 1.02931 20.301H1.2788V21.4456C1.2788 22.8546 2.42494 24 3.83317 24H16.9857C18.393 24 19.5393 22.8546 19.5393 21.4456V6.04551L13.4726 0ZM16.9857 22.4357H3.83317C3.2879 22.4357 2.84388 21.9916 2.84388 21.4456V20.301H15.1047C15.6732 20.301 16.1341 19.8405 16.1341 19.2717V13.0293C16.1341 12.4605 15.6732 12 15.1047 12H2.84388V2.55437C2.84388 2.00989 3.28795 1.56587 3.83317 1.56587L12.8873 1.55641V4.90315C12.8873 5.88069 13.6805 6.67461 14.6588 6.67461L17.9373 6.6652L17.9742 21.4456C17.9742 21.9916 17.5309 22.4357 16.9857 22.4357Z" fill="#3F9EFE"/>
<path d="M4.4475 1.3575V5H3.7025V2.905C3.7025 2.85667 3.70333 2.80417 3.705 2.7475C3.70833 2.69083 3.71333 2.63333 3.72 2.575L2.7525 4.4475C2.7225 4.50583 2.68167 4.55 2.63 4.58C2.58 4.61 2.5225 4.625 2.4575 4.625H2.3425C2.2775 4.625 2.21917 4.61 2.1675 4.58C2.1175 4.55 2.0775 4.50583 2.0475 4.4475L1.08 2.57C1.085 2.63 1.08917 2.68917 1.0925 2.7475C1.09583 2.80417 1.0975 2.85667 1.0975 2.905V5H0.3525V1.3575H0.9975C1.03417 1.3575 1.06583 1.35833 1.0925 1.36C1.12083 1.36167 1.14583 1.36667 1.1675 1.375C1.18917 1.38333 1.20833 1.39667 1.225 1.415C1.24333 1.43167 1.26083 1.45583 1.2775 1.4875L2.215 3.335C2.24833 3.39833 2.28 3.46417 2.31 3.5325C2.34167 3.60083 2.37167 3.67083 2.4 3.7425C2.42833 3.66917 2.4575 3.5975 2.4875 3.5275C2.51917 3.4575 2.5525 3.39083 2.5875 3.3275L3.5225 1.4875C3.53917 1.45583 3.55583 1.43167 3.5725 1.415C3.59083 1.39667 3.61083 1.38333 3.6325 1.375C3.65417 1.36667 3.67833 1.36167 3.705 1.36C3.73333 1.35833 3.76583 1.3575 3.8025 1.3575H4.4475ZM6.4373 3.145C6.6573 3.145 6.81564 3.0925 6.9123 2.9875C7.00897 2.8825 7.0573 2.73583 7.0573 2.5475C7.0573 2.46417 7.0448 2.38833 7.0198 2.32C6.9948 2.25167 6.95647 2.19333 6.9048 2.145C6.8548 2.095 6.79064 2.05667 6.7123 2.03C6.63564 2.00333 6.54397 1.99 6.4373 1.99H5.9973V3.145H6.4373ZM6.4373 1.3575C6.69397 1.3575 6.91397 1.38833 7.0973 1.45C7.2823 1.51 7.43397 1.59333 7.5523 1.7C7.6723 1.80667 7.76064 1.9325 7.8173 2.0775C7.87397 2.2225 7.9023 2.37917 7.9023 2.5475C7.9023 2.72917 7.87314 2.89583 7.8148 3.0475C7.75647 3.19917 7.6673 3.32917 7.5473 3.4375C7.4273 3.54583 7.2748 3.63083 7.0898 3.6925C6.90647 3.7525 6.68897 3.7825 6.4373 3.7825H5.9973V5H5.1523V1.3575H6.4373ZM8.19852 2.3975C8.22518 2.21583 8.27602 2.0575 8.35102 1.9225C8.42768 1.7875 8.52185 1.675 8.63352 1.585C8.74685 1.495 8.87602 1.42833 9.02102 1.385C9.16602 1.34 9.32185 1.3175 9.48852 1.3175C9.66852 1.3175 9.82852 1.34333 9.96852 1.395C10.1085 1.445 10.2268 1.51333 10.3235 1.6C10.4202 1.68667 10.4935 1.7875 10.5435 1.9025C10.5935 2.01583 10.6185 2.13583 10.6185 2.2625C10.6185 2.3775 10.6068 2.47917 10.5835 2.5675C10.5602 2.65417 10.5252 2.73 10.4785 2.795C10.4335 2.85833 10.3768 2.9125 10.3085 2.9575C10.2418 3.00083 10.1652 3.0375 10.0785 3.0675C10.4818 3.20917 10.6835 3.48417 10.6835 3.8925C10.6835 4.08583 10.6485 4.25417 10.5785 4.3975C10.5085 4.54083 10.4143 4.66 10.296 4.755C10.1793 4.85 10.0435 4.92167 9.88852 4.97C9.73352 5.01667 9.57185 5.04 9.40352 5.04C9.23018 5.04 9.07602 5.02167 8.94102 4.985C8.80602 4.94667 8.68602 4.88833 8.58102 4.81C8.47602 4.73 8.38352 4.62833 8.30352 4.505C8.22518 4.38167 8.15685 4.235 8.09852 4.065L8.44352 3.925C8.53352 3.89 8.61685 3.88083 8.69352 3.8975C8.77018 3.91417 8.82518 3.9525 8.85852 4.0125C8.93352 4.15083 9.01268 4.25167 9.09602 4.315C9.18102 4.37667 9.28018 4.4075 9.39352 4.4075C9.48018 4.4075 9.55518 4.39333 9.61852 4.365C9.68352 4.335 9.73685 4.2975 9.77852 4.2525C9.82185 4.20583 9.85435 4.15333 9.87602 4.095C9.89768 4.03667 9.90852 3.9775 9.90852 3.9175C9.90852 3.83917 9.90268 3.76917 9.89102 3.7075C9.88102 3.64417 9.85102 3.59 9.80102 3.545C9.75102 3.5 9.67518 3.46583 9.57352 3.4425C9.47352 3.4175 9.33352 3.405 9.15352 3.405V2.87C9.30518 2.87 9.42768 2.85833 9.52102 2.835C9.61435 2.81167 9.68602 2.78 9.73602 2.74C9.78768 2.69833 9.82185 2.64833 9.83852 2.59C9.85518 2.53167 9.86352 2.4675 9.86352 2.3975C9.86352 2.25417 9.82852 2.14417 9.75852 2.0675C9.69018 1.98917 9.58518 1.95 9.44352 1.95C9.32852 1.95 9.23102 1.98083 9.15102 2.0425C9.07268 2.1025 9.01852 2.1775 8.98852 2.2675C8.95352 2.35917 8.90768 2.42 8.85102 2.45C8.79435 2.48 8.71352 2.48667 8.60852 2.47L8.19852 2.3975Z" transform="translate(2 13)" fill="white"/>
</svg>
