<svg width="20" height="24" viewBox="0 0 20 24" fill="none" xmlns="http://www.w3.org/2000/svg">
<path d="M13.4726 0H3.83317C2.42494 0 1.2788 1.14694 1.2788 2.55437V12H1.02931C0.460946 12 0 12.4605 0 13.0293V19.2717C0 19.8405 0.460896 20.301 1.02931 20.301H1.2788V21.4456C1.2788 22.8546 2.42494 24 3.83317 24H16.9857C18.393 24 19.5393 22.8546 19.5393 21.4456V6.04551L13.4726 0ZM16.9857 22.4357H3.83317C3.2879 22.4357 2.84388 21.9916 2.84388 21.4456V20.301H15.1047C15.6732 20.301 16.1341 19.8405 16.1341 19.2717V13.0293C16.1341 12.4605 15.6732 12 15.1047 12H2.84388V2.55437C2.84388 2.00989 3.28795 1.56587 3.83317 1.56587L12.8873 1.55641V4.90315C12.8873 5.88069 13.6805 6.67461 14.6588 6.67461L17.9373 6.6652L17.9742 21.4456C17.9742 21.9916 17.5309 22.4357 16.9857 22.4357Z" fill="#3F9EFE"/>
<path d="M1.6375 3.145C1.8575 3.145 2.01583 3.0925 2.1125 2.9875C2.20917 2.8825 2.2575 2.73583 2.2575 2.5475C2.2575 2.46417 2.245 2.38833 2.22 2.32C2.195 2.25167 2.15667 2.19333 2.105 2.145C2.055 2.095 1.99083 2.05667 1.9125 2.03C1.83583 2.00333 1.74417 1.99 1.6375 1.99H1.1975V3.145H1.6375ZM1.6375 1.3575C1.89417 1.3575 2.11417 1.38833 2.2975 1.45C2.4825 1.51 2.63417 1.59333 2.7525 1.7C2.8725 1.80667 2.96083 1.9325 3.0175 2.0775C3.07417 2.2225 3.1025 2.37917 3.1025 2.5475C3.1025 2.72917 3.07333 2.89583 3.015 3.0475C2.95667 3.19917 2.8675 3.32917 2.7475 3.4375C2.6275 3.54583 2.475 3.63083 2.29 3.6925C2.10667 3.7525 1.88917 3.7825 1.6375 3.7825H1.1975V5H0.3525V1.3575H1.6375ZM5.54371 2.0975C5.51871 2.1375 5.49204 2.1675 5.46371 2.1875C5.43704 2.2075 5.40204 2.2175 5.35871 2.2175C5.32038 2.2175 5.27871 2.20583 5.23371 2.1825C5.19038 2.1575 5.14038 2.13 5.08371 2.1C5.02871 2.07 4.96538 2.04333 4.89371 2.02C4.82204 1.995 4.74038 1.9825 4.64871 1.9825C4.49038 1.9825 4.37204 2.01667 4.29371 2.085C4.21704 2.15167 4.17871 2.2425 4.17871 2.3575C4.17871 2.43083 4.20204 2.49167 4.24871 2.54C4.29538 2.58833 4.35621 2.63 4.43121 2.665C4.50788 2.7 4.59454 2.7325 4.69121 2.7625C4.78954 2.79083 4.88954 2.82333 4.99121 2.86C5.09288 2.895 5.19204 2.93667 5.28871 2.985C5.38704 3.03333 5.47371 3.095 5.54871 3.17C5.62538 3.245 5.68704 3.33667 5.73371 3.445C5.78038 3.55167 5.80371 3.68083 5.80371 3.8325C5.80371 4.00083 5.77454 4.15833 5.71621 4.305C5.65788 4.45167 5.57288 4.58 5.46121 4.69C5.35121 4.79833 5.21454 4.88417 5.05121 4.9475C4.88954 5.00917 4.70538 5.04 4.49871 5.04C4.38538 5.04 4.26954 5.02833 4.15121 5.005C4.03454 4.98167 3.92121 4.94917 3.81121 4.9075C3.70121 4.86417 3.59788 4.81333 3.50121 4.755C3.40454 4.69667 3.32038 4.63167 3.24871 4.56L3.49871 4.165C3.51871 4.13667 3.54454 4.11333 3.57621 4.095C3.60954 4.075 3.64538 4.065 3.68371 4.065C3.73371 4.065 3.78371 4.08083 3.83371 4.1125C3.88538 4.14417 3.94288 4.17917 4.00621 4.2175C4.07121 4.25583 4.14538 4.29083 4.22871 4.3225C4.31204 4.35417 4.41038 4.37 4.52371 4.37C4.67704 4.37 4.79621 4.33667 4.88121 4.27C4.96621 4.20167 5.00871 4.09417 5.00871 3.9475C5.00871 3.8625 4.98538 3.79333 4.93871 3.74C4.89204 3.68667 4.83038 3.6425 4.75371 3.6075C4.67871 3.5725 4.59288 3.54167 4.49621 3.515C4.39954 3.48833 4.30038 3.45917 4.19871 3.4275C4.09704 3.39417 3.99788 3.35417 3.90121 3.3075C3.80454 3.25917 3.71788 3.19667 3.64121 3.12C3.56621 3.04167 3.50538 2.945 3.45871 2.83C3.41204 2.71333 3.38871 2.57 3.38871 2.4C3.38871 2.26333 3.41621 2.13 3.47121 2C3.52621 1.87 3.60704 1.75417 3.71371 1.6525C3.82038 1.55083 3.95121 1.47 4.10621 1.41C4.26121 1.34833 4.43871 1.3175 4.63871 1.3175C4.75038 1.3175 4.85871 1.32667 4.96371 1.345C5.07038 1.36167 5.17121 1.3875 5.26621 1.4225C5.36121 1.45583 5.44954 1.49667 5.53121 1.545C5.61454 1.59167 5.68871 1.645 5.75371 1.705L5.54371 2.0975ZM9.60477 3.1775C9.60477 3.44083 9.55893 3.68417 9.46727 3.9075C9.37727 4.12917 9.24977 4.32167 9.08477 4.485C8.91977 4.64667 8.7206 4.77333 8.48727 4.865C8.2556 4.955 7.9981 5 7.71477 5H6.29977V1.3575H7.71477C7.9981 1.3575 8.2556 1.40333 8.48727 1.495C8.7206 1.58667 8.91977 1.71333 9.08477 1.875C9.24977 2.03667 9.37727 2.22917 9.46727 2.4525C9.55893 2.67417 9.60477 2.91583 9.60477 3.1775ZM8.73977 3.1775C8.73977 2.9975 8.71643 2.835 8.66977 2.69C8.6231 2.545 8.5556 2.4225 8.46727 2.3225C8.3806 2.22083 8.27393 2.14333 8.14727 2.09C8.0206 2.035 7.87643 2.0075 7.71477 2.0075H7.14977V4.35H7.71477C7.87643 4.35 8.0206 4.32333 8.14727 4.27C8.27393 4.215 8.3806 4.1375 8.46727 4.0375C8.5556 3.93583 8.6231 3.8125 8.66977 3.6675C8.71643 3.5225 8.73977 3.35917 8.73977 3.1775Z" transform="translate(2 13)" fill="white"/>
</svg>
