<svg width="20" height="24" viewBox="0 0 20 24" fill="none" xmlns="http://www.w3.org/2000/svg">
<path d="M13.4726 0H3.83317C2.42494 0 1.2788 1.14694 1.2788 2.55437V12H1.02931C0.460946 12 0 12.4605 0 13.0293V19.2717C0 19.8405 0.460896 20.301 1.02931 20.301H1.2788V21.4456C1.2788 22.8546 2.42494 24 3.83317 24H16.9857C18.393 24 19.5393 22.8546 19.5393 21.4456V6.04551L13.4726 0ZM16.9857 22.4357H3.83317C3.2879 22.4357 2.84388 21.9916 2.84388 21.4456V20.301H15.1047C15.6732 20.301 16.1341 19.8405 16.1341 19.2717V13.0293C16.1341 12.4605 15.6732 12 15.1047 12H2.84388V2.55437C2.84388 2.00989 3.28795 1.56587 3.83317 1.56587L12.8873 1.55641V4.90315C12.8873 5.88069 13.6805 6.67461 14.6588 6.67461L17.9373 6.6652L17.9742 21.4456C17.9742 21.9916 17.5309 22.4357 16.9857 22.4357Z" fill="#3F9EFE"/>
<path d="M3.4775 5H2.6325C2.5775 5 2.5325 4.98667 2.4975 4.96C2.46417 4.93333 2.4375 4.90167 2.4175 4.865L1.6875 3.59C1.67417 3.62667 1.65917 3.65833 1.6425 3.685L0.9625 4.865C0.939167 4.89833 0.911667 4.92917 0.88 4.9575C0.848333 4.98583 0.8075 5 0.7575 5H-0.0325L1.14 3.125L0.0125 1.3575H0.8575C0.9125 1.3575 0.9525 1.365 0.9775 1.38C1.00417 1.39333 1.0275 1.41667 1.0475 1.45L1.7725 2.6775C1.78083 2.65583 1.79 2.635 1.8 2.615C1.81167 2.595 1.82417 2.57417 1.8375 2.5525L2.4725 1.4625C2.49583 1.42583 2.52 1.39917 2.545 1.3825C2.57167 1.36583 2.60417 1.3575 2.6425 1.3575H3.4525L2.31 3.09L3.4775 5ZM5.99965 4.325V5H3.80465V1.3575H4.64965V4.325H5.99965ZM8.4441 2.0975C8.4191 2.1375 8.39243 2.1675 8.3641 2.1875C8.33743 2.2075 8.30243 2.2175 8.2591 2.2175C8.22077 2.2175 8.1791 2.20583 8.1341 2.1825C8.09077 2.1575 8.04077 2.13 7.9841 2.1C7.9291 2.07 7.86577 2.04333 7.7941 2.02C7.72243 1.995 7.64077 1.9825 7.5491 1.9825C7.39077 1.9825 7.27243 2.01667 7.1941 2.085C7.11743 2.15167 7.0791 2.2425 7.0791 2.3575C7.0791 2.43083 7.10243 2.49167 7.1491 2.54C7.19577 2.58833 7.2566 2.63 7.3316 2.665C7.40827 2.7 7.49493 2.7325 7.5916 2.7625C7.68993 2.79083 7.78993 2.82333 7.8916 2.86C7.99327 2.895 8.09243 2.93667 8.1891 2.985C8.28743 3.03333 8.3741 3.095 8.4491 3.17C8.52577 3.245 8.58743 3.33667 8.6341 3.445C8.68077 3.55167 8.7041 3.68083 8.7041 3.8325C8.7041 4.00083 8.67493 4.15833 8.6166 4.305C8.55827 4.45167 8.47327 4.58 8.3616 4.69C8.2516 4.79833 8.11493 4.88417 7.9516 4.9475C7.78993 5.00917 7.60577 5.04 7.3991 5.04C7.28577 5.04 7.16993 5.02833 7.0516 5.005C6.93493 4.98167 6.8216 4.94917 6.7116 4.9075C6.6016 4.86417 6.49827 4.81333 6.4016 4.755C6.30493 4.69667 6.22077 4.63167 6.1491 4.56L6.3991 4.165C6.4191 4.13667 6.44493 4.11333 6.4766 4.095C6.50993 4.075 6.54577 4.065 6.5841 4.065C6.6341 4.065 6.6841 4.08083 6.7341 4.1125C6.78577 4.14417 6.84327 4.17917 6.9066 4.2175C6.9716 4.25583 7.04577 4.29083 7.1291 4.3225C7.21243 4.35417 7.31077 4.37 7.4241 4.37C7.57743 4.37 7.6966 4.33667 7.7816 4.27C7.8666 4.20167 7.9091 4.09417 7.9091 3.9475C7.9091 3.8625 7.88577 3.79333 7.8391 3.74C7.79243 3.68667 7.73077 3.6425 7.6541 3.6075C7.5791 3.5725 7.49327 3.54167 7.3966 3.515C7.29993 3.48833 7.20077 3.45917 7.0991 3.4275C6.99743 3.39417 6.89827 3.35417 6.8016 3.3075C6.70493 3.25917 6.61827 3.19667 6.5416 3.12C6.4666 3.04167 6.40577 2.945 6.3591 2.83C6.31243 2.71333 6.2891 2.57 6.2891 2.4C6.2891 2.26333 6.3166 2.13 6.3716 2C6.4266 1.87 6.50743 1.75417 6.6141 1.6525C6.72077 1.55083 6.8516 1.47 7.0066 1.41C7.1616 1.34833 7.3391 1.3175 7.5391 1.3175C7.65077 1.3175 7.7591 1.32667 7.8641 1.345C7.97077 1.36167 8.0716 1.3875 8.1666 1.4225C8.2616 1.45583 8.34993 1.49667 8.4316 1.545C8.51493 1.59167 8.5891 1.645 8.6541 1.705L8.4441 2.0975Z" transform="translate(2 13)" fill="white"/>
</svg>
