<svg width="67" height="68" viewBox="0 0 67 68" fill="none" xmlns="http://www.w3.org/2000/svg">
<path d="M14.1685 68C4.72282 68 0 60.6052 0 45.8156C0 40.1891 1.12067 33.7589 3.36201 26.5248C5.60334 19.13 8.32497 12.8605 11.5269 7.71633C14.7288 2.57211 17.5305 0 19.9319 0C22.4934 0 23.7742 1.92908 23.7742 5.78725L16.81 20.9787C12.8076 29.8203 10.6464 36.2506 10.3262 40.2695C14.6487 38.5012 17.6906 37.617 19.4516 37.617C21.6929 37.617 23.6141 38.9835 25.2151 41.7163C26.816 44.2884 27.6165 47.5839 27.6165 51.6028C27.6165 56.104 26.3357 59.9622 23.7742 63.1773C21.3728 66.3924 18.1709 68 14.1685 68ZM51.871 66.0709C47.5484 66.0709 44.1063 63.4988 41.5448 58.3546C39.1434 53.2104 37.9427 47.182 37.9427 40.2695C37.9427 29.4988 43.3059 17.5225 54.0323 4.34043C55.6332 3.05437 57.2342 2.41135 58.8351 2.41135C61.7168 2.41135 63.1577 3.6974 63.1577 6.26951C63.1577 7.55556 62.8375 8.76124 62.1971 9.88653C55.6332 18.2459 51.7109 24.5154 50.4301 28.6951C49.3094 33.5177 48.7491 36.7329 48.7491 38.3404C48.7491 40.1088 48.9092 42.1182 49.2294 44.3688C51.7909 43.0827 54.2724 42.4397 56.6738 42.4397C59.5556 42.4397 61.957 43.2435 63.8781 44.8511C65.9594 46.4586 67 48.5485 67 51.1206C67 53.8534 65.1589 57.0686 61.4767 60.766C57.7945 64.3026 54.5926 66.0709 51.871 66.0709Z"/>
</svg>
