<svg xmlns="http://www.w3.org/2000/svg" width="18" height="18" viewBox="0 0 18 18">
  <metadata><?xpacket begin="﻿" id="W5M0MpCehiHzreSzNTczkc9d"?>
<x:xmpmeta xmlns:x="adobe:ns:meta/" x:xmptk="Adobe XMP Core 5.6-c138 79.159824, 2016/09/14-01:09:01        ">
   <rdf:RDF xmlns:rdf="http://www.w3.org/1999/02/22-rdf-syntax-ns#">
      <rdf:Description rdf:about=""/>
   </rdf:RDF>
</x:xmpmeta>
                                                                                                    
                                                                                                    
                                                                                                    
                                                                                                    
                                                                                                    
                                                                                                    
                                                                                                    
                                                                                                    
                                                                                                    
                                                                                                    
                                                                                                    
                                                                                                    
                                                                                                    
                                                                                                    
                                                                                                    
                                                                                                    
                                                                                                    
                                                                                                    
                                                                                                    
                                                                                                    
                           
<?xpacket end="w"?></metadata>
<defs>
    <style>
      .cls-1 {
        fill: #fff;
        fill-rule: evenodd;
      }
    </style>
  </defs>
  <path id="buy_icon" class="cls-1" d="M157,2705h-3v10a1,1,0,0,1-1,1h-1v2h-2v-2h-4v2h-2v-2h-1a1,1,0,0,1,0-2h9v-2H142a2,2,0,0,1-2-2v-4a1,1,0,0,1,2,0v4h10v-6a1,1,0,0,1,1-1h4A1,1,0,0,1,157,2705Zm-9.176,2.55a0.77,0.77,0,0,1-.11.16,0.951,0.951,0,0,1-.7.29h-0.034a0.954,0.954,0,0,1-.7-0.29,0.852,0.852,0,0,1-.113-0.17l-1.887-1.88a0.969,0.969,0,1,1,1.371-1.37l0.343,0.34V2701a1,1,0,0,1,2,0v3.63l0.343-.34a0.969,0.969,0,1,1,1.371,1.37Z" transform="translate(-140 -2700)"/>
</svg>
