<svg xmlns:svg="http://www.w3.org/2000/svg" xmlns="http://www.w3.org/2000/svg" version="1.1" viewBox="0 0 100 100"
 xml:space="preserve" width="100" height="100">
	<g transform="matrix(0.31163322,0,0,0.31163322,0.02776093,-0.12787046)">
		<path d="m 275.445,135.123 c 0.387,-45.398 -38.279,-87.016 -86.192,-92.771 -0.953,-0.113 -1.991,-0.285 -3.09,-0.467 -2.372,-0.393 -4.825,-0.797 -7.3,-0.797 -9.82,0 -12.445,6.898 -13.136,11.012 -0.672,4 -0.031,7.359 1.902,9.988 3.252,4.422 8.974,5.207 13.57,5.836 1.347,0.186 2.618,0.359 3.682,0.598 43.048,9.619 57.543,24.742 64.627,67.424 0.173,1.043 0.251,2.328 0.334,3.691 0.309,5.102 0.953,15.717 12.365,15.717 h 0.001 c 0.95,0 1.971,-0.082 3.034,-0.244 10.627,-1.615 10.294,-11.318 10.134,-15.98 -0.045,-1.313 -0.088,-2.555 0.023,-3.381 0.03,-0.208 0.045,-0.417 0.046,-0.626 z" />
		<path d="m 176.077,25.688 c 1.275,0.092 2.482,0.18 3.487,0.334 70.689,10.871 103.198,44.363 112.207,115.605 0.153,1.211 0.177,2.688 0.202,4.252 0.09,5.566 0.275,17.145 12.71,17.385 l 0.386,0.004 c 3.9,0 7.002,-1.176 9.221,-3.498 3.871,-4.049 3.601,-10.064 3.383,-14.898 -0.053,-1.186 -0.104,-2.303 -0.091,-3.281 C 318.481,68.729 255.411,2.658 182.614,0.201 c -0.302,-0.01 -0.59,0.006 -0.881,0.047 -0.143,0.021 -0.408,0.047 -0.862,0.047 -0.726,0 -1.619,-0.063 -2.566,-0.127 C 177.16,0.09 175.862,0 174.546,0 c -11.593,0 -13.797,8.24 -14.079,13.152 -0.65,11.352 10.332,12.151 15.61,12.536 z" />
		<path d="m 288.36,233.703 c -1.503,-1.148 -3.057,-2.336 -4.512,-3.508 -7.718,-6.211 -15.929,-11.936 -23.87,-17.473 -1.648,-1.148 -3.296,-2.297 -4.938,-3.449 -10.172,-7.145 -19.317,-10.617 -27.957,-10.617 -11.637,0 -21.783,6.43 -30.157,19.109 -3.71,5.621 -8.211,8.354 -13.758,8.354 -3.28,0 -7.007,-0.936 -11.076,-2.783 -32.833,-14.889 -56.278,-37.717 -69.685,-67.85 -6.481,-14.564 -4.38,-24.084 7.026,-31.832 6.477,-4.396 18.533,-12.58 17.679,-28.252 C 126.145,77.605 86.877,24.056 70.332,17.974 63.327,15.398 55.967,15.374 48.417,17.914 29.397,24.308 15.748,35.537 8.942,50.385 2.365,64.732 2.662,81.578 9.801,99.102 c 20.638,50.666 49.654,94.84 86.245,131.293 35.816,35.684 79.837,64.914 130.839,86.875 4.597,1.978 9.419,3.057 12.94,3.844 1.2,0.27 2.236,0.5 2.991,0.707 0.415,0.113 0.843,0.174 1.272,0.178 l 0.403,0.002 c 10e-4,0 0,0 0.002,0 23.988,0 52.791,-21.92 61.637,-46.91 7.75,-21.882 -6.4,-32.698 -17.77,-41.388 z" />
		<path d="m 186.687,83.564 c -4.107,0.104 -12.654,0.316 -15.653,9.021 -1.403,4.068 -1.235,7.6 0.5,10.498 2.546,4.252 7.424,5.555 11.861,6.27 16.091,2.582 24.355,11.48 26.008,28 0.768,7.703 5.955,13.082 12.615,13.082 h 0.001 c 0.492,0 0.995,-0.029 1.496,-0.09 8.01,-0.953 11.893,-6.838 11.542,-17.49 0.128,-11.117 -5.69,-23.738 -15.585,-33.791 -9.929,-10.084 -21.898,-15.763 -32.785,-15.5 z" />
	</g>
</svg>
