<svg width="24" height="20" viewBox="0 0 24 20" fill="none" xmlns="http://www.w3.org/2000/svg">
<g opacity="0.5">
<path d="M3.51562 19.1406H20.4844C22.4229 19.1406 24 17.5635 24 15.625V4.375C24 2.43646 22.4229 0.859375 20.4844 0.859375H3.51562C1.57709 0.859375 0 2.43646 0 4.375V15.625C0 17.5635 1.57709 19.1406 3.51562 19.1406ZM1.40625 4.375C1.40625 3.21191 2.35254 2.26562 3.51562 2.26562H20.4844C21.6475 2.26562 22.5938 3.21191 22.5938 4.375V15.625C22.5938 16.7881 21.6475 17.7344 20.4844 17.7344H3.51562C2.35254 17.7344 1.40625 16.7881 1.40625 15.625V4.375Z" fill="#2E6ECF"/>
<path d="M8.48438 5.28943V14.8472L16.9453 9.98993L8.48438 5.28943ZM9.89062 7.67932L14.0859 10.0101L9.89062 12.4185V7.67932Z" fill="#2E6ECF"/>
</g>
</svg>
