<svg width="80" height="80" viewBox="0 0 80 80" fill="none" xmlns="http://www.w3.org/2000/svg">
<path fill-rule="evenodd" clip-rule="evenodd" d="M74.9256 40C74.9256 59.1508 59.4008 74.6756 40.25 74.6756C21.0992 74.6756 5.57443 59.1508 5.57443 40C5.57443 20.8492 21.0992 5.32443 40.25 5.32443C59.4008 5.32443 74.9256 20.8492 74.9256 40ZM79.75 40C79.75 61.8152 62.0652 79.5 40.25 79.5C18.4348 79.5 0.75 61.8152 0.75 40C0.75 18.1848 18.4348 0.5 40.25 0.5C62.0652 0.5 79.75 18.1848 79.75 40ZM30.4488 56.9732L59.8477 39.9998L30.4488 23.0264V56.9732Z" fill="white"/>
</svg>
