<svg xmlns:svg="http://www.w3.org/2000/svg" xmlns="http://www.w3.org/2000/svg" width="100" height="100" viewBox="0 0 100 100"
 version="1.1">

	<path d="m 93.649661,67.938732 c -6.71036,0 -13.202832,-1.076553 -19.258912,-3.015197 -1.909442,-0.646417 -4.037387,-0.161756 -5.510438,1.292228 L 60.315073,76.824386 C 44.87529,69.554471 30.417603,55.822449 22.724963,40.044068 l 10.638742,-8.93933 c 1.473051,-1.507781 1.909504,-3.607998 1.309358,-5.492785 -2.018632,-5.977506 -3.05523,-12.385815 -3.05523,-19.0094954 0,-2.9079661 -2.455085,-5.3312712 -5.401187,-5.3312712 H 7.3398064 c -2.9461139,0 -6.49234877,1.2924274 -6.49234877,5.3312712 0,50.0278014 42.17289337,91.6009324 92.80220337,91.6009324 3.87351,0 5.401186,-3.392627 5.401186,-6.354512 V 73.270004 c 0,-2.907966 -2.455085,-5.331272 -5.401186,-5.331272 z" />
</svg>
