<svg xmlns:svg="http://www.w3.org/2000/svg" xmlns="http://www.w3.org/2000/svg" xml:space="preserve" viewBox="0 0 52 100"
 height="100" width="100" version="1.1">
	<g transform="matrix(1.0525288,0,0,1.0405444,-24.278337,0)">
		<path d="M 72.089,0.02 59.624,0 C 45.62,0 36.57,9.285 36.57,23.656 V 34.563 H 24.037 c -1.083,0 -1.96,0.878 -1.96,1.961 v 15.803 c 0,1.083 0.878,1.96 1.96,1.96 H 36.57 v 39.876 c 0,1.083 0.877,1.96 1.96,1.96 h 16.352 c 1.083,0 1.96,-0.878 1.96,-1.96 V 54.287 h 14.654 c 1.083,0 1.96,-0.877 1.96,-1.96 l 0.006,-15.803 c 0,-0.52 -0.207,-1.018 -0.574,-1.386 -0.367,-0.368 -0.867,-0.575 -1.387,-0.575 H 56.842 v -9.246 c 0,-4.444 1.059,-6.7 6.848,-6.7 l 8.397,-0.003 c 1.082,0 1.959,-0.878 1.959,-1.96 V 1.98 c 0,-1.081 -0.876,-1.958 -1.957,-1.96 z" />
	</g>
</svg>
