<svg xmlns:svg="http://www.w3.org/2000/svg" xmlns="http://www.w3.org/2000/svg" height="100" width="100" xml:space="preserve" viewBox="0 0 100 100" version="1.1">
	<g transform="matrix(5.3820703,0,0,5.3820703,-302.76121,235.63417)">
		<g>
			<polygon transform="matrix(0.03620778,0,0,0.03620778,56.266087,-44.035212)" points="416,256 416,320 448,320 448,256 512,256 512,224 448,224 448,160 416,160 416,224 352,224 352,256 " />
		</g>
	</g>
	<g transform="matrix(0.1948728,0,0,0.1948728,0.06682711,-1.3664407)">
		<g>
			<path d="m 160,224 v 64 h 90.528 c -13.216,37.248 -48.8,64 -90.528,64 -52.928,0 -96,-43.072 -96,-96 0,-52.928 43.072,-96 96,-96 22.944,0 45.024,8.224 62.176,23.168 l 42.048,-48.256 C 235.424,109.824 198.432,96 160,96 71.776,96 0,167.776 0,256 c 0,88.224 71.776,160 160,160 88.224,0 160,-71.776 160,-160 v -32 z" />
		</g>
	</g>
</svg>
