<svg xmlns:svg="http://www.w3.org/2000/svg" xmlns="http://www.w3.org/2000/svg" version="1.1" width="100" height="100"
 viewBox="0 0 100 100" xml:space="preserve">

	<g transform="matrix(0.6123598,0,0,0.60481128,-7.5948633,-44.237862)">
		<path d="m 175.7113,174.52115 v 63.95745 h -34.99395 v -59.67396 c 0,-14.99059 -5.06149,-25.22108 -17.72814,-25.22108 -9.66938,0 -15.42364,6.8946 -17.95515,13.56397 -0.92317,2.38427 -1.16079,5.70286 -1.16079,9.04036 V 238.4786 H 68.867548 c 0,0 0.471455,-101.0681 0,-111.53951 h 35.002302 v 15.81028 c -0.071,0.11824 -0.16323,0.24574 -0.23003,0.36037 h 0.23003 v -0.36037 c 4.6504,-7.58921 12.95552,-18.43065 31.54496,-18.43065 23.03107,-4e-4 40.29649,15.9418 40.29649,50.20243 z M 32.250078,73.171509 c -11.975411,0 -19.808319,8.322829 -19.808319,19.267634 0,10.706297 7.606291,19.281707 19.343696,19.281707 h 0.23383 c 12.207342,0 19.799209,-8.5738 19.799209,-19.281707 C 51.58846,81.494338 44.226627,73.171509 32.250078,73.171509 Z M 14.520792,238.4786 H 49.513223 V 126.93909 H 14.520792 Z" />
	</g>

</svg>
