<svg xmlns:svg="http://www.w3.org/2000/svg" xmlns="http://www.w3.org/2000/svg" version="1.1" width="100" height="100"
 viewBox="0 0 100 100" xml:space="preserve">

	<g transform="matrix(3.222032,0,0,3.2226473,0.08992314,0.08099057)">
		<path d="M 30.988,3.229 C 30.798,1.383 29.268,0.001 27.409,0 19.473,0 11.538,0 3.602,0.002 3.385,0.002 3.164,0.018 2.954,0.059 1.196,0.395 0.002,1.849 0.002,3.638 c 0,3.956 0,7.912 0,11.868 0,3.948 0,7.896 0.002,11.844 0,0.201 0.015,0.403 0.04,0.604 0.23,1.717 1.755,3.048 3.49,3.049 7.979,0 15.959,0 23.938,-0.001 0.137,0 0.272,-0.008 0.409,-0.023 1.753,-0.206 3.116,-1.737 3.116,-3.502 C 31,19.496 31,11.516 30.998,3.536 31,3.432 31.002,3.331 30.988,3.229 Z M 15.501,9.542 c 3.294,-10e-4 5.96,2.661 5.964,5.958 0.004,3.295 -2.658,5.962 -5.954,5.964 -3.302,0.001 -5.972,-2.668 -5.968,-5.968 0.004,-3.286 2.672,-5.954 5.958,-5.954 z m 11.931,3.739 c 0,4.281 0,8.563 0,12.847 0,0.806 -0.49,1.301 -1.297,1.301 -6.623,0 -13.246,0 -19.87,0 -0.477,0 -0.951,0.001 -1.429,0 -0.747,-10e-4 -1.254,-0.509 -1.254,-1.255 -10e-4,-4.302 0,-8.604 0,-12.907 0,-0.043 0,-0.087 0,-0.138 0.901,0 1.791,0 2.69,0 -0.602,2.429 -0.326,4.753 0.863,6.951 0.869,1.604 2.115,2.851 3.704,3.748 3.138,1.771 7.042,1.604 10.03,-0.438 1.658,-1.134 2.85,-2.642 3.561,-4.521 0.707,-1.875 0.799,-3.789 0.305,-5.744 0.901,0 1.789,0 2.695,0 0.002,0.053 0.002,0.104 0.002,0.156 z m 0,-4.96 c -0.002,0.705 -0.521,1.219 -1.229,1.22 -0.009,0 -0.019,0 -0.024,0 -0.574,0 -1.152,0 -1.73,0 -0.588,0 -1.178,10e-4 -1.768,-0.001 -0.679,0 -1.207,-0.507 -1.211,-1.186 -0.008,-1.195 -0.008,-2.39 0,-3.583 0.004,-0.687 0.53,-1.19 1.221,-1.191 1.176,-10e-4 2.349,-10e-4 3.523,0 0.696,10e-4 1.217,0.518 1.219,1.218 0.001,1.176 0.001,2.349 -0.001,3.523 z" />
	</g>

</svg>
