<svg xmlns:svg="http://www.w3.org/2000/svg" xmlns="http://www.w3.org/2000/svg" version="1.1" width="100" height="100"
 viewBox="0 0 1945.568 1945.568" xml:space="preserve">

	<g transform="matrix(3.733738,0,0,3.733738,67.976758,70.443805)">


		<path d="M 430.149,141.10563 C 416.865,47.997881 321.076,0.59016103 218.873,11.690675 138.071,20.465506 57.512,83.745218 54.168,174.23185 52.131,229.47192 68.304,270.90222 122.567,282.56356 146.066,242.28207 114.998,233.4772 110.134,204.29623 90.222,85.040278 252.16,3.592918 336.975,86.925235 395.707,144.6392 357.008,322.07984 262.405,303.61774 171.784,286.00899 306.788,144.75737 234.468,117.0487 c -58.793,-22.555549 -90.013,68.90359 -62.137,114.36824 -16.355,78.1792 -51.557,151.79322 -37.3,249.81871 46.207,-32.50823 61.802,-94.66821 74.57,-159.53744 23.225,13.69257 35.659,27.85589 65.268,30.06438 109.195,8.21399 170.267,-105.59437 155.28,-210.65696 z" />


	</g>

</svg>
