<svg xmlns:svg="http://www.w3.org/2000/svg" xmlns="http://www.w3.org/2000/svg" version="1.1" width="100" height="100"
 viewBox="0 0 100 100" xml:space="preserve">

	<g transform="matrix(0.33323134,0,0,0.33323134,0.06023349,0.05399198)">
		<path d="m 5.299,144.645 69.126,25.8 26.756,86.047 c 1.712,5.511 8.451,7.548 12.924,3.891 l 38.532,-31.412 c 4.039,-3.291 9.792,-3.455 14.013,-0.391 l 69.498,50.457 c 4.785,3.478 11.564,0.856 12.764,-4.926 L 299.823,29.22 c 1.31,-6.316 -4.896,-11.585 -10.91,-9.259 L 5.218,129.402 c -7.001,2.7 -6.94,12.612 0.081,15.243 z m 91.57,12.066 135.098,-83.207 c 2.428,-1.491 4.926,1.792 2.841,3.726 L 123.313,180.87 c -3.919,3.648 -6.447,8.53 -7.163,13.829 l -3.798,28.146 c -0.503,3.758 -5.782,4.131 -6.819,0.494 L 90.926,172.014 c -1.673,-5.854 0.765,-12.107 5.943,-15.303 z" />
	</g>

</svg>
