<svg xmlns:svg="http://www.w3.org/2000/svg" xmlns="http://www.w3.org/2000/svg" fill="#fff" xml:space="preserve" viewBox="0 0 175.78027 100.29036"
 height="100" width="100" y="0px" x="0px" version="1.1">


	<g transform="matrix(0.30890006,0,0,0.31679178,3.7653951,-39.791576)">
		<path id="path2" d="m 543.7736,400.298 c -0.65967,-1.431 -1.27462,-2.618 -1.84588,-3.569 -9.45185,-17.135 -27.51411,-38.167 -54.17584,-63.102 l -0.56329,-0.571 -0.28215,-0.28 -0.28512,-0.287 h -0.28612 c -12.10045,-11.611 -19.76308,-19.418 -22.97199,-23.415 -5.8714,-7.614 -7.18675,-15.321 -3.97784,-23.13 2.26709,-5.9 10.78311,-18.36 25.52817,-37.397 7.75601,-10.089 13.89863,-18.175 18.43481,-24.267 32.71592,-43.78 46.89968,-71.756 42.54829,-83.939 l -1.68989,-2.847 c -1.13554,-1.714 -4.06627,-3.282 -8.78823,-4.712 -4.73289,-1.427 -10.78212,-1.663 -18.15862,-0.712 l -81.68699,0.568 c -1.3233,-0.472 -3.21288,-0.428 -5.67469,0.144 -2.45885,0.572 -3.68876,0.859 -3.68876,0.859 l -1.42165,0.715 -1.12859,0.859 c -0.94577,0.568 -1.98593,1.567 -3.12147,2.995 -1.12958,1.423 -2.07437,3.093 -2.82939,4.996 -8.89354,23.031 -19.00507,44.444 -30.35347,64.238 -6.997,11.803 -13.42275,22.032 -19.29117,30.693 -5.86048,8.658 -10.77716,15.037 -14.74507,19.126 -3.97388,4.093 -7.5603,7.372 -10.78113,9.849 -3.21585,2.478 -5.67072,3.525 -7.37054,3.142 -1.7038,-0.383 -3.30825,-0.763 -4.82726,-1.143 -2.64562,-1.714 -4.77362,-4.045 -6.37807,-6.995 -1.61142,-2.95 -2.69628,-6.663 -3.26355,-11.136 -0.56429,-4.476 -0.89809,-8.326 -0.99347,-11.563 -0.0884,-3.233 -0.0477,-7.806 0.14405,-13.706 0.19671,-5.903 0.28513,-9.897 0.28513,-11.991 0,-7.234 0.14008,-15.085 0.42123,-23.555 0.28612,-8.47 0.51759,-15.181 0.71132,-20.125 0.19274,-4.949 0.28215,-10.185 0.28215,-15.705 0,-5.52 -0.33381,-9.849 -0.99347,-12.991 -0.65172,-3.138 -1.65214,-6.184 -2.97048,-9.137 -1.32628,-2.95 -3.26751,-5.232 -5.81477,-6.852 -2.55222,-1.618 -5.72536,-2.902 -9.50153,-3.856 -10.02311,-2.283 -22.78621,-3.518 -38.29525,-3.71 -35.16979,-0.38 -57.76823,1.906 -67.79034,6.855 -3.97089,2.091 -7.56427,4.948 -10.77715,8.562 -3.40462,4.189 -3.8795,6.475 -1.42166,6.851 11.3474,1.711 19.3806,5.804 24.10851,12.275 l 1.7038,3.429 c 1.32529,2.474 2.64859,6.854 3.97289,13.134 1.3223,6.28 2.17569,13.227 2.55122,20.837 0.94379,13.897 0.94379,25.793 0,35.689 -0.94678,9.9 -1.84089,17.607 -2.69429,23.127 -0.85339,5.52 -2.129,9.993 -3.82982,13.418 -1.7038,3.426 -2.83735,5.52 -3.40561,6.28 -0.56727,0.76 -1.04017,1.239 -1.4157,1.427 -2.45783,0.948 -5.01403,1.431 -7.65964,1.431 -2.64959,0 -5.86246,-1.334 -9.64361,-4 -3.78015,-2.666 -7.70335,-6.328 -11.76962,-10.992 -4.06626,-4.665 -8.65211,-11.184 -13.75954,-19.558 -5.10345,-8.374 -10.39864,-18.271 -15.88259,-29.691 l -4.53717,-8.282 c -2.83635,-5.328 -6.71089,-13.086 -11.62756,-23.267 -4.91966,-10.185 -9.26808,-20.037 -13.04823,-29.554 -1.51106,-3.997 -3.78113,-7.04 -6.80625,-9.134 l -1.41966,-0.859 c -0.9438,-0.76 -2.45884,-1.567 -4.53718,-2.427 -2.08131,-0.859 -4.25304,-1.475 -6.524108,-1.854 l -77.718079,0.568 c -7.941791,0 -13.3303663,1.811 -16.1677135,5.428 l -1.1355349,1.711 c -0.5672708,0.953 -0.8533898,2.475 -0.8533898,4.57 0,2.094 0.5672708,4.664 1.7028057,7.707 11.3454155,26.84 23.6833045,52.725 37.0136715,77.659 13.330366,24.934 24.914213,45.019 34.744587,60.237 9.832362,15.229 19.854477,29.602 30.066341,43.112 10.21187,13.515 16.97144,22.176 20.27869,25.981 3.31124,3.812 5.91214,6.662 7.80271,8.565 l 7.09237,6.851 c 4.53816,4.569 11.20235,10.041 19.99555,16.416 8.79518,6.379 18.53217,12.659 29.21593,18.85 10.68575,6.181 23.11703,11.225 37.30078,15.126 14.18177,3.905 27.98503,5.472 41.41177,4.716 h 32.61955 c 6.61551,-0.575 11.62757,-2.669 15.03417,-6.283 l 1.12857,-1.431 c 0.75902,-1.136 1.46935,-2.901 2.12504,-5.276 0.66363,-2.379 0.99346,-5 0.99346,-7.851 -0.19372,-8.183 0.42521,-15.558 1.83991,-22.124 1.41371,-6.564 3.02511,-11.513 4.82726,-14.846 1.80116,-3.33 3.8338,-6.14 6.09593,-8.418 2.2671,-2.283 3.88248,-3.666 4.83025,-4.142 0.94181,-0.479 1.69386,-0.804 2.26114,-0.999 4.53816,-1.522 9.87904,-0.048 16.03061,4.429 6.14659,4.473 11.91169,9.996 17.30423,16.56 5.38957,6.57 11.86501,13.941 19.42729,22.124 7.56726,8.186 14.18376,14.271 19.85447,18.274 l 5.67073,3.426 c 3.7871,2.286 8.70378,4.38 14.756,6.283 6.04127,1.902 11.33448,2.378 15.8796,1.427 l 72.60966,-1.14 c 7.18178,0 12.77005,-1.197 16.73399,-3.572 3.97189,-2.379 6.33138,-5 7.09237,-7.851 0.75902,-2.854 0.79975,-6.092 0.14406,-9.712 -0.67258,-3.611 -1.33523,-6.136 -1.99488,-7.563 z" />
	</g>
</svg>
