<?xml version="1.0" encoding="utf-8"?>
<!-- Generator: Adobe Illustrator 19.2.1, SVG Export Plug-In . SVG Version: 6.00 Build 0)  -->
<svg version="1.1" xmlns="http://www.w3.org/2000/svg" xmlns:xlink="http://www.w3.org/1999/xlink" x="0px" y="0px"
	 viewBox="0 0 19 31" style="enable-background:new 0 0 19 31;" xml:space="preserve">
<style type="text/css">
	.st0{display:none;}
	.st1{display:inline;fill:#AA3030;stroke:#000000;stroke-miterlimit:10;}
	.st2{fill:#FFFFFF;}
</style>
<g id="Слой_2" class="st0">
	<rect x="-38" y="-40" class="st1" width="151" height="139"/>
</g>
<g id="Слой_1">
	<path class="st2" d="M11,11.7c2.6-0.7,4.5-3,4.5-5.8c0-3.3-2.7-5.9-6-5.9c0,0,0,0,0,0h0C6.2,0,3.6,2.7,3.6,6c0,2.8,1.9,5.1,4.5,5.7
		c-4.5,1-8,6.6-8,13.4c0,1.3,0.1,2.6,0.4,3.9l0.1,0.3l0.3,0.1C3.6,30.5,6.5,31,9.6,31c0,0,0.1,0,0.1,0c3,0,5.8-0.5,8.6-1.5l0.3-0.1
		l0.1-0.3c0.3-1.3,0.4-2.6,0.4-4C19,18.4,15.5,12.7,11,11.7z M4.6,6c0-2.7,2.2-4.9,4.9-5h0c2.7,0,5,2.2,5,4.9c0,2.7-2.2,5-4.9,5
		c0,0,0,0,0,0C8.2,10.9,7,10.4,6,9.5C5.1,8.5,4.6,7.3,4.6,6z M17.7,28.6c-2.6,0.9-5.2,1.4-8,1.4c-2.9,0-5.7-0.5-8.4-1.5
		C1.1,27.4,1,26.3,1,25.1c0-6.9,3.8-12.6,8.5-12.6c4.7,0,8.5,5.6,8.5,12.6C18,26.3,17.9,27.5,17.7,28.6z"/>
</g>
</svg>
